<svg width="79" height="135" viewBox="0 0 79 135" fill="none" xmlns="http://www.w3.org/2000/svg">
<path d="M23.0652 38.9216H39.3897C43.3605 38.9216 48.5978 38.9216 51.3022 40.5861C54.2681 42.3749 56.5966 45.6294 56.5966 50.1095C56.5966 54.9623 54.0802 58.606 49.9132 60.3285V60.461C55.461 61.6121 58.484 65.8272 58.484 71.4501C58.484 78.1579 53.7533 84.551 44.8067 84.551H23.0652V38.9216ZM29.0541 58.5397H41.0401C47.8461 58.5397 50.6241 56.0471 50.6241 51.2523C50.6241 44.9255 46.212 44.0311 41.0401 44.0311H29.0541V58.5397ZM29.0541 79.4332H44.0632C49.2269 79.4332 52.5114 76.2366 52.5114 71.2597C52.5114 65.3138 47.7807 63.6575 42.7396 63.6575H29.0623V79.4415L29.0541 79.4332Z" fill="#FDF8F2"/>
<path d="M73.8036 61.7446C73.8036 80.9072 58.4758 96.4428 39.5613 96.4428C20.6467 96.4428 5.32713 80.9155 5.32713 61.7446C5.32713 42.5736 20.6549 27.0547 39.5613 27.0547C58.4677 27.0547 73.8036 42.5902 73.8036 61.7529V61.7446ZM39.5613 21.7547C17.7871 21.7547 0.130727 39.6504 0.130727 61.728C0.130727 83.8057 17.7871 101.693 39.5613 101.693C61.3355 101.693 79 83.7974 79 61.728C79 39.6586 61.3437 21.7547 39.5613 21.7547Z" fill="#FDF8F2"/>
<path d="M78.9183 110.123H0.212431V115.365H78.9183V110.123Z" fill="#FDF8F2"/>
<path d="M76.459 104.351C76.557 104.351 76.6469 104.351 76.7368 104.343C76.8185 104.343 76.9002 104.318 76.9656 104.293C77.0391 104.26 77.0881 104.211 77.129 104.153C77.1698 104.086 77.1862 104.003 77.1862 103.896C77.1862 103.805 77.1698 103.722 77.1371 103.672C77.1045 103.614 77.0554 103.573 76.9982 103.548C76.941 103.515 76.8839 103.498 76.8021 103.482C76.7286 103.482 76.6633 103.473 76.5816 103.473H76.0178V104.36H76.4672L76.459 104.351ZM76.6469 103.117C76.9737 103.117 77.2107 103.184 77.3741 103.316C77.5293 103.449 77.611 103.647 77.611 103.921C77.611 104.177 77.5375 104.351 77.4068 104.476C77.2679 104.591 77.0963 104.658 76.8839 104.683L77.6682 105.908H77.2107L76.459 104.707H76.0096V105.908H75.5766V103.126H76.6469V103.117ZM74.7105 105.304C74.8004 105.552 74.9393 105.776 75.119 105.958C75.2906 106.14 75.4949 106.281 75.7318 106.388C75.9606 106.488 76.2221 106.538 76.4917 106.538C76.7613 106.538 77.0228 106.488 77.2515 106.388C77.4885 106.281 77.6927 106.14 77.8643 105.958C78.0359 105.776 78.1748 105.56 78.2647 105.304C78.3627 105.055 78.4199 104.79 78.4199 104.5C78.4199 104.211 78.3709 103.946 78.2647 103.697C78.1666 103.449 78.0277 103.233 77.8643 103.051C77.6846 102.869 77.4803 102.728 77.2515 102.629C77.0228 102.529 76.7613 102.471 76.4917 102.471C76.2221 102.471 75.9606 102.529 75.7318 102.629C75.4949 102.736 75.2824 102.877 75.119 103.051C74.9393 103.233 74.8086 103.449 74.7105 103.697C74.6125 103.946 74.5635 104.202 74.5635 104.5C74.5635 104.798 74.6125 105.055 74.7105 105.304ZM74.3183 103.556C74.4409 103.266 74.6125 103.026 74.8249 102.811C75.0373 102.596 75.2906 102.438 75.5766 102.314C75.8625 102.19 76.173 102.132 76.4835 102.132C76.794 102.132 77.1126 102.19 77.4068 102.314C77.6846 102.438 77.9378 102.596 78.1421 102.811C78.3545 103.026 78.5343 103.275 78.6487 103.556C78.7794 103.846 78.8366 104.161 78.8366 104.5C78.8366 104.84 78.7794 105.155 78.6487 105.444C78.5261 105.743 78.3545 105.991 78.1421 106.206C77.9297 106.43 77.6846 106.587 77.4068 106.711C77.1126 106.827 76.8103 106.885 76.4835 106.885C76.1567 106.885 75.8625 106.827 75.5766 106.711C75.2906 106.587 75.0373 106.43 74.8249 106.206C74.6125 105.991 74.4409 105.743 74.3183 105.444C74.1876 105.155 74.1386 104.84 74.1386 104.5C74.1386 104.161 74.1876 103.846 74.3183 103.556Z" fill="#FDF8F2"/>
<path d="M9.74734 4.182C9.55942 3.8756 9.33064 3.6106 9.05285 3.38701C8.77505 3.15513 8.45641 2.98123 8.10508 2.84873C7.75375 2.72451 7.38608 2.65826 7.00207 2.65826C6.29941 2.65826 5.70297 2.79904 5.20457 3.07232C4.71434 3.3456 4.31399 3.71826 4.01169 4.182C3.70938 4.64575 3.48061 5.17575 3.34171 5.77199C3.20281 6.36824 3.12928 6.98104 3.12928 7.61042C3.12928 8.23979 3.19464 8.80291 3.34171 9.37431C3.48061 9.94571 3.70121 10.4591 4.01169 10.9229C4.31399 11.3784 4.71434 11.751 5.20457 12.0243C5.6948 12.2976 6.29124 12.4384 7.00207 12.4384C7.95801 12.4384 8.70969 12.1402 9.24077 11.5523C9.78002 10.956 10.1068 10.1776 10.2294 9.20869H13.2606C13.1789 10.1113 12.9747 10.9229 12.6397 11.6516C12.3047 12.3804 11.8717 13.0015 11.3242 13.5066C10.7768 14.0201 10.1395 14.4093 9.41235 14.6826C8.68518 14.9476 7.87631 15.0883 7.00207 15.0883C5.9154 15.0883 4.93495 14.8979 4.06071 14.5086C3.18647 14.1277 2.4593 13.5977 1.85469 12.9187C1.25825 12.2479 0.800703 11.4529 0.482056 10.542C0.163409 9.63931 0 8.66213 0 7.61042C0 6.5587 0.155238 5.53184 0.482056 4.61262C0.800703 3.69341 1.25825 2.88186 1.85469 2.2028C2.45113 1.51546 3.18647 0.977181 4.06071 0.587965C4.92678 0.198749 5.90723 0 7.00207 0C7.78643 0 8.52994 0.115937 9.22443 0.339529C9.91892 0.571402 10.548 0.90265 11.0955 1.34155C11.6429 1.78046 12.1004 2.31873 12.4599 2.96467C12.8194 3.6106 13.0482 4.35591 13.1381 5.18403H10.1068C10.0578 4.81965 9.93526 4.48841 9.74734 4.182Z" fill="#FDF8F2"/>
<path d="M17.3377 12.2562C17.7625 12.6702 18.3753 12.8855 19.1679 12.8855C19.7398 12.8855 20.23 12.7448 20.6467 12.4549C21.0552 12.1651 21.3085 11.8587 21.4066 11.5357H23.8985C23.4982 12.7862 22.8854 13.6888 22.0602 14.2271C21.235 14.7654 20.2382 15.0386 19.0698 15.0386C18.2609 15.0386 17.5256 14.9061 16.8801 14.6411C16.2265 14.3762 15.6791 14.0035 15.2215 13.5232C14.7722 13.0429 14.4208 12.4632 14.1757 11.7841C13.9306 11.1134 13.808 10.3681 13.808 9.56478C13.808 8.7615 13.9306 8.0576 14.1839 7.38682C14.4372 6.71605 14.7967 6.12808 15.2624 5.63949C15.7281 5.1509 16.2837 4.76169 16.9292 4.48012C17.5746 4.19856 18.2854 4.05778 19.0698 4.05778C19.944 4.05778 20.7121 4.23169 21.3657 4.57122C22.0193 4.91903 22.5504 5.37449 22.9671 5.95418C23.3838 6.53386 23.6861 7.19636 23.874 7.93338C24.0619 8.67041 24.1273 9.44884 24.0701 10.2604H16.635C16.6759 11.1879 16.9046 11.8669 17.3295 12.281L17.3377 12.2562ZM20.5405 6.75745C20.1973 6.3848 19.6826 6.19433 18.9963 6.19433C18.5469 6.19433 18.1711 6.26886 17.8688 6.42621C17.5665 6.58355 17.3295 6.77401 17.1498 6.99761C16.97 7.22948 16.8475 7.46964 16.7739 7.72635C16.7004 7.98307 16.6595 8.20666 16.6432 8.41369H21.2513C21.1206 7.68495 20.8836 7.13011 20.5405 6.75745Z" fill="#FDF8F2"/>
<path d="M28.041 4.3145V6.2523H28.0818C28.2125 5.92933 28.3923 5.63121 28.6211 5.34965C28.8498 5.07637 29.1031 4.83622 29.3972 4.64575C29.6914 4.45528 30.0019 4.29794 30.3368 4.19028C30.6718 4.08263 31.015 4.03294 31.3745 4.03294C31.5624 4.03294 31.7667 4.06607 31.9954 4.13231V6.79886C31.8647 6.77402 31.7013 6.74917 31.5134 6.73261C31.3255 6.71605 31.1457 6.69948 30.9741 6.69948C30.4594 6.69948 30.0182 6.79058 29.6587 6.96448C29.2992 7.13839 29.0132 7.37854 28.7926 7.68495C28.572 7.99135 28.4168 8.33916 28.3269 8.74494C28.237 9.15072 28.188 9.58962 28.188 10.0616V14.7736H25.3611V4.3145H28.0491H28.041Z" fill="#FDF8F2"/>
<path d="M39.5694 4.3145V6.23574H37.4942V11.4115C37.4942 11.9001 37.5759 12.223 37.7311 12.3804C37.8863 12.5377 38.2132 12.6205 38.687 12.6205C38.8504 12.6205 38.9975 12.6205 39.1446 12.604C39.2917 12.5874 39.4305 12.5708 39.5613 12.546V14.7654C39.3243 14.8068 39.0547 14.8316 38.7606 14.8482C38.4664 14.8647 38.1805 14.873 37.9027 14.873C37.4615 14.873 37.0448 14.8399 36.6608 14.7819C36.2686 14.724 35.9254 14.608 35.6231 14.4258C35.3208 14.2519 35.092 14.0035 34.9123 13.6805C34.7407 13.3576 34.6508 12.9352 34.6508 12.4052V6.23574H32.9351V4.3145H34.6508V1.18421H37.4778V4.3145H39.5694Z" fill="#FDF8F2"/>
<path d="M41.2117 2.69967V0.331248H44.0387V2.69967H41.2117ZM44.0387 4.3145V14.7571H41.2117V4.3145H44.0387Z" fill="#FDF8F2"/>
<path d="M45.1662 6.23574V4.3145H46.8575V3.50294C46.8575 2.57545 47.1434 1.81358 47.7154 1.21734C48.2873 0.621089 49.1534 0.331248 50.3054 0.331248C50.5587 0.331248 50.812 0.339529 51.0653 0.364372C51.3185 0.380935 51.5637 0.405778 51.8006 0.41406V2.55889C51.4656 2.51748 51.1225 2.50092 50.763 2.50092C50.3789 2.50092 50.1011 2.59201 49.9377 2.7742C49.7743 2.95639 49.6926 3.26279 49.6926 3.69341V4.32278H51.6454V6.24402H49.6926V14.7736H46.8575V6.23574H45.1662Z" fill="#FDF8F2"/>
<path d="M53.5654 2.69967V0.331248H56.3924V2.69967H53.5654ZM56.3924 4.3145V14.7571H53.5654V4.3145H56.3924Z" fill="#FDF8F2"/>
<path d="M60.8616 12.2562C61.2865 12.6702 61.8993 12.8855 62.6918 12.8855C63.2637 12.8855 63.754 12.7448 64.1706 12.4549C64.5792 12.1651 64.8325 11.8587 64.9305 11.5357H67.4225C67.0221 12.7862 66.4093 13.6888 65.5923 14.2271C64.7671 14.7654 63.7703 15.0386 62.6019 15.0386C61.793 15.0386 61.0577 14.9061 60.4122 14.6411C59.7586 14.3762 59.2112 14.0035 58.7536 13.5232C58.3043 13.0429 57.9529 12.4632 57.7078 11.7841C57.4627 11.1134 57.3402 10.3681 57.3402 9.56478C57.3402 8.7615 57.4709 8.0576 57.716 7.38682C57.9693 6.71605 58.3288 6.12808 58.7945 5.63949C59.2602 5.1509 59.8158 4.76169 60.4613 4.48012C61.1067 4.19856 61.8176 4.05778 62.6019 4.05778C63.4762 4.05778 64.2442 4.23169 64.8978 4.57122C65.5515 4.91903 66.0825 5.37449 66.4992 5.95418C66.9159 6.53386 67.2182 7.19636 67.4061 7.93338C67.5941 8.67041 67.6594 9.44884 67.6104 10.2604H60.1753C60.2162 11.1879 60.4449 11.8669 60.8698 12.281L60.8616 12.2562ZM64.0644 6.75745C63.7294 6.3848 63.2065 6.19433 62.5202 6.19433C62.0708 6.19433 61.695 6.26886 61.3927 6.42621C61.0904 6.58355 60.8535 6.77401 60.6737 6.99761C60.4939 7.22948 60.3714 7.46964 60.2979 7.72635C60.2243 7.98307 60.1835 8.20666 60.1671 8.41369H64.7671C64.6364 7.68495 64.3994 7.13011 64.0563 6.75745H64.0644Z" fill="#FDF8F2"/>
<path d="M76.1894 13.4238C75.8544 13.9869 75.4213 14.401 74.8821 14.6494C74.3428 14.8979 73.7382 15.0221 73.0601 15.0221C72.2921 15.0221 71.6139 14.873 71.0257 14.5666C70.4374 14.2602 69.9553 13.8544 69.5795 13.3327C69.2036 12.811 68.9177 12.2148 68.7216 11.544C68.5255 10.8732 68.4356 10.1693 68.4356 9.44056C68.4356 8.71181 68.5337 8.06588 68.7216 7.41167C68.9095 6.75745 69.2036 6.18605 69.5795 5.6809C69.9553 5.18403 70.4374 4.77825 71.0011 4.48013C71.5731 4.17372 72.2349 4.02466 72.9947 4.02466C73.6075 4.02466 74.1876 4.15716 74.735 4.42216C75.2906 4.68715 75.7236 5.06809 76.0423 5.58152H76.0832V0.331248H78.9101V14.7571H76.222V13.4238H76.1812H76.1894ZM76.0668 8.26463C75.9851 7.86713 75.8544 7.51932 75.6583 7.21292C75.4622 6.90651 75.2171 6.66636 74.9066 6.47589C74.6043 6.28543 74.2121 6.19433 73.7546 6.19433C73.297 6.19433 72.8967 6.28543 72.578 6.47589C72.2594 6.66636 72.0061 6.91479 71.81 7.2212C71.6221 7.5276 71.4832 7.8837 71.3933 8.28119C71.3034 8.67869 71.2626 9.09275 71.2626 9.52337C71.2626 9.92915 71.3116 10.3349 71.4015 10.7324C71.4914 11.1382 71.6466 11.4943 71.8509 11.8173C72.0551 12.1319 72.3166 12.3887 72.6271 12.5874C72.9375 12.7862 73.3134 12.8773 73.7546 12.8773C74.2203 12.8773 74.6043 12.7862 74.9229 12.5957C75.2334 12.4052 75.4867 12.1568 75.6746 11.8338C75.8625 11.5191 75.9933 11.1548 76.075 10.7573C76.1567 10.3515 76.1975 9.93743 76.1975 9.50681C76.1975 9.07619 76.1567 8.66213 76.075 8.26463H76.0668Z" fill="#FDF8F2"/>
<path d="M7.11645 125.667C6.97756 124.657 6.02162 123.887 4.92678 123.887C2.94953 123.887 2.20602 125.593 2.20602 127.373C2.20602 129.153 2.94953 130.768 4.92678 130.768C6.2749 130.768 7.03475 129.833 7.19816 128.491H9.33881C9.11004 131.025 7.38608 132.648 4.92678 132.648C1.82201 132.648 0 130.296 0 127.373C0 124.45 1.82201 122.007 4.92678 122.007C7.1328 122.007 8.97931 123.315 9.24894 125.667H7.11645Z" fill="#FDF8F2"/>
<path d="M13.9388 124.856C16.2265 124.856 17.6972 126.388 17.6972 128.739C17.6972 131.091 16.2265 132.607 13.9388 132.607C11.651 132.607 10.1885 131.066 10.1885 128.739C10.1885 126.412 11.6592 124.856 13.9388 124.856ZM13.9388 131.083C15.3032 131.083 15.7036 129.899 15.7036 128.739C15.7036 127.58 15.2951 126.379 13.9388 126.379C12.5825 126.379 12.1821 127.563 12.1821 128.739C12.1821 129.915 12.5906 131.083 13.9388 131.083Z" fill="#FDF8F2"/>
<path d="M18.9309 125.038H20.8265V126.404H20.8591C21.2186 125.477 22.2073 124.839 23.1795 124.839C23.3184 124.839 23.49 124.864 23.6126 124.905V126.785C23.4247 126.744 23.1305 126.719 22.8936 126.719C21.4311 126.719 20.9245 127.787 20.9245 129.079V132.391H18.9309V125.038Z" fill="#FDF8F2"/>
<path d="M26.2761 125.054V125.99H26.3006C26.7745 125.212 27.5589 124.856 28.4576 124.856C30.7372 124.856 31.7585 126.719 31.7585 128.806C31.7585 130.768 30.6964 132.607 28.572 132.607C27.706 132.607 26.8726 132.226 26.3987 131.497H26.366V135H24.3724V125.054H26.2761ZM29.7731 128.756C29.7731 127.588 29.3074 126.379 28.0328 126.379C26.7582 126.379 26.3088 127.563 26.3088 128.756C26.3088 129.948 26.7582 131.091 28.0491 131.091C29.3401 131.091 29.7731 129.957 29.7731 128.756Z" fill="#FDF8F2"/>
<path d="M36.1379 124.856C38.4256 124.856 39.9044 126.388 39.9044 128.739C39.9044 131.091 38.4256 132.607 36.1379 132.607C33.8501 132.607 32.3958 131.066 32.3958 128.739C32.3958 126.412 33.8665 124.856 36.1379 124.856ZM36.1379 131.083C37.5023 131.083 37.9109 129.899 37.9109 128.739C37.9109 127.58 37.5023 126.379 36.1379 126.379C34.7734 126.379 34.3812 127.563 34.3812 128.739C34.3812 129.915 34.7897 131.083 36.1379 131.083Z" fill="#FDF8F2"/>
<path d="M43.0255 125.038V126.404H43.0582C43.4177 125.477 44.4063 124.839 45.3705 124.839C45.5094 124.839 45.6809 124.864 45.8035 124.905V126.785C45.6237 126.744 45.3296 126.719 45.0845 126.719C43.622 126.719 43.1154 127.787 43.1154 129.079V132.391H41.1218V125.038H43.0255Z" fill="#FDF8F2"/>
<path d="M46.3918 127.315C46.5062 125.419 48.1729 124.856 49.807 124.856C51.2532 124.856 52.9935 125.179 52.9935 126.942V130.768C52.9935 131.439 53.0588 132.102 53.2468 132.408H51.2205C51.1551 132.176 51.0898 131.936 51.0816 131.696C50.4525 132.367 49.5292 132.607 48.6386 132.607C47.266 132.607 46.1712 131.911 46.1712 130.404C46.1712 128.739 47.4049 128.342 48.6386 128.168C49.8642 127.986 50.9999 128.027 50.9999 127.199C50.9999 126.371 50.4035 126.205 49.709 126.205C48.9491 126.205 48.4589 126.52 48.3854 127.315H46.3918ZM50.9999 128.806C50.6567 129.104 49.9622 129.12 49.3413 129.236C48.7203 129.361 48.1648 129.576 48.1648 130.321C48.1648 131.066 48.7367 131.257 49.3903 131.257C50.9427 131.257 51.0081 130.006 51.0081 129.568V128.814L50.9999 128.806Z" fill="#FDF8F2"/>
<path d="M57.0215 125.054H58.484V126.404H57.0215V130.048C57.0215 130.735 57.1931 130.901 57.8631 130.901C58.0755 130.901 58.2716 130.884 58.484 130.843V132.425C58.149 132.483 57.7078 132.499 57.3156 132.499C56.0983 132.499 55.0279 132.209 55.0279 130.752V126.412H53.8187V125.063H55.0279V122.86H57.0215V125.063V125.054Z" fill="#FDF8F2"/>
<path d="M61.9728 123.92H59.9792V122.255H61.9728V123.92ZM59.9792 125.063H61.9728V132.416H59.9792V125.063Z" fill="#FDF8F2"/>
<path d="M67.063 124.856C69.3507 124.856 70.8296 126.388 70.8296 128.739C70.8296 131.091 69.3507 132.607 67.063 132.607C64.7753 132.607 63.3209 131.066 63.3209 128.739C63.3209 126.412 64.7916 124.856 67.063 124.856ZM67.063 131.083C68.4274 131.083 68.836 129.899 68.836 128.739C68.836 127.58 68.4274 126.379 67.063 126.379C65.6985 126.379 65.3063 127.563 65.3063 128.739C65.3063 129.915 65.7149 131.083 67.063 131.083Z" fill="#FDF8F2"/>
<path d="M72.1123 125.054H74.0079V126.081H74.0487C74.5553 125.253 75.4213 124.856 76.2711 124.856C78.3872 124.856 78.9265 126.065 78.9265 127.886V132.408H76.9329V128.251C76.9329 127.042 76.5815 126.446 75.6583 126.446C74.5716 126.446 74.1141 127.058 74.1141 128.557V132.416H72.1205V125.063L72.1123 125.054Z" fill="#FDF8F2"/>
</svg>
