<?xml version="1.0" encoding="UTF-8"?>
<svg id="Layer_1" viewBox="0 0 200 200" xmlns="http://www.w3.org/2000/svg">
	<defs>
		<style>.cls-1{fill:#71CB9F;}</style>
	</defs>
	<path class="cls-1" d="m114.69,31.46c13.55,1.77,26.61,7.78,36.91,16.73,10.86,9.43,18.48,22.03,21.98,35.96s2.81,29.83-3.1,43.35c-5.79,13.25-16.4,23.21-29.04,29.93s-26.53,10.33-40.57,11c-14.05.67-28.42-1.69-41.06-8.01-11.72-5.86-21.35-14.96-27.73-26.42-6-10.77-9.03-23.42-7.4-35.73,1.9-14.43,10.69-26.71,20.48-37.01,9.58-10.07,21.45-19.07,35.35-21.81,3.26-.64,6.59-.84,9.91-.68s3.21-4.84,0-5c-15.26-.74-29.33,6.64-40.69,16.27-5.89,5-11.22,10.7-15.96,16.8-4.93,6.35-9.17,13.26-11.75,20.92-4.29,12.73-3.34,26.87,1.39,39.34s13.46,24.19,24.7,32.14c12.26,8.68,27.15,13.15,42.05,14.1s30.27-1.6,44.19-7.17,26.72-14.19,35.23-26.68c8.98-13.17,12.41-29.91,10.76-45.65s-7.8-30.22-17.98-41.97c-9.66-11.16-22.78-19.35-36.99-23.3-3.51-.98-7.07-1.65-10.67-2.12-1.34-.18-2.5,1.27-2.5,2.5,0,1.5,1.15,2.32,2.5,2.5h0Z"/>
	<path class="cls-1" d="m128.22,133.08c-4.63,5.16-10.39,9.19-16.93,11.53-10.82,3.85-22.8,2.4-33.07-2.39-5.11-2.38-9.84-5.67-13.9-9.58-1.73-1.66-3.68-3.53-5.04-5.58-2.4,1.52-5.26,2.35-8.09,2.06-1.4-.15-2.43-1.03-2.5-2.5-.05-1.25,1.2-2.64,2.5-2.5.42.04.84.06,1.26.06.17-.01.35-.02.53-.03.05,0,.1,0,.14,0,.02,0,.03,0,.05-.01h.03c.62-.12,1.47-.21,2.06-.54.05-.03.1-.06.15-.09.02-.01.04-.02.05-.03.16-.08.32-.16.48-.24.36-.2.72-.42,1.07-.65.04-.04.35-.3.42-.32h.01s.09-.07.13-.11c.22-.19.45-.4.66-.61l1.13-1.29c.08-.12.16-.24.24-.36.22-.35.43-.71.62-1.08.04-.08.15-.41.22-.47,0-.01.01-.01.01-.02.01-.02.01-.04.02-.06.14-.38.27-.78.37-1.18.04-.17.08-.35.12-.52.02-.1.05-.77.06-.37.01.42.02-.29.02-.37.01-.18.02-.35.02-.53s-.01-.36-.02-.54c0-.1-.05-.47-.05-.52.01.01.01.06.03.15-.15-1.33.39-2.49,1.76-2.93,1.18-.38,2.89.45,3.08,1.74.3,2.11.22,4.21-.51,6.24-.41,1.14-.94,2.22-1.61,3.22-.21.34-.45.68-.7,1,.02.03.04.08.08.14.02.04.04.07.07.11.25.41.6.77.9,1.14.86,1.05,1.77,2.06,2.72,3.03,1.79,1.83,3.72,3.54,5.8,5.05,7.65,5.55,16.91,8.91,26.35,8.7,9.97-.23,19.05-4.83,25.72-12.28,2.15-2.4,5.68,1.14,3.54,3.54Z"/>
	<path class="cls-1" d="m139.35,81.38c.24,2.2-.3,4.12-1.62,5.86-.58.76-1.43,1.52-2.2,2-.42.26-1.08.59-1.29.66-.31.11-.62.21-.94.28-.06.02-.78.16-.45.11-2.15.3-4.11-.34-5.87-1.72-.64-.51-1.47-1.42-1.94-2.2-.27-.45-.49-.87-.6-1.17-.1-.26-.18-.53-.25-.8-.03-.12-.19-.96-.17-.72-.16-1.34-1.03-2.5-2.5-2.5-1.23,0-2.66,1.15-2.5,2.5.41,3.41,2,6.48,4.71,8.65,2.56,2.05,5.81,3.3,9.12,2.96,6.68-.68,12.23-7.13,11.5-13.92-.14-1.34-1.05-2.5-2.5-2.5-1.24,0-2.64,1.15-2.5,2.5h0Z"/>
	<path class="cls-1" d="m97.48,84.1c-.03.89-.3,1.68-.78,2.52-.53.93-1.18,1.74-1.9,2.53-.76.83-1.57,1.86-2.5,2.5-.73.5-1.64.4-2.5.24-2.04-.36-4.28-.83-5.88-2.09-.7-.56-1.22-1.3-1.43-1.91-.08-.22-.14-.45-.19-.67-.15-.61-.04.2-.04-.43,0-.49.03-.63.13-.86.57-1.22.34-2.7-.9-3.42-1.08-.63-2.85-.33-3.42.9-1.48,3.18-.7,6.64,1.59,9.23s5.65,3.51,8.8,4.08c1.97.35,3.94.49,5.78-.44,1.47-.74,2.65-2.05,3.76-3.23,2.36-2.52,4.34-5.38,4.48-8.94.05-1.35-1.19-2.5-2.5-2.5-1.4,0-2.45,1.15-2.5,2.5h0Z"/>
</svg>