<svg width="37" height="37" viewBox="0 0 37 37" fill="none" xmlns="http://www.w3.org/2000/svg">
<path d="M14.9105 19.3881C13.4675 19.0921 11.9505 18.9441 10.4705 18.9441C10.6925 19.1661 10.9145 19.3881 11.1735 19.6471C11.0995 18.2041 11.0995 16.7611 11.1365 15.3181C11.1365 14.8371 11.0625 15.4661 10.9515 15.2811C10.9515 15.3181 11.3215 15.2441 11.3585 15.2441C11.7285 15.2071 12.0985 15.2071 12.4685 15.1701C13.2085 15.1331 13.9485 15.0591 14.6515 15.0221C15.0585 14.9851 15.3175 14.7261 15.3545 14.3191C15.4655 12.8021 15.5765 11.2481 15.7615 9.76811C15.9465 8.51011 16.2425 7.21511 16.9825 6.17911C18.7215 3.70011 22.2365 3.81111 24.9005 3.99611C25.1225 3.99611 25.7145 3.95911 25.8255 4.14411C25.8625 4.21811 25.8255 4.51411 25.8625 4.62511C25.8625 4.84711 25.8625 5.03211 25.8625 5.25411C25.8995 6.21611 25.8625 7.17811 25.8255 8.14011C26.0475 7.91811 26.2695 7.69611 26.5285 7.43711C25.0115 7.40011 23.3465 7.51111 21.9405 7.99211C21.2745 8.21411 20.6825 8.54711 20.2755 9.13911C19.8685 9.73111 19.7205 10.4341 19.6465 11.1371C19.5355 11.9511 19.5355 12.7281 19.5725 13.5421C19.6095 14.3191 19.8315 14.9851 20.7195 15.0961C22.3475 15.2811 24.0495 15.2441 25.7145 15.1331C25.4925 14.8371 25.2705 14.5411 25.0485 14.2451C24.8265 15.8361 24.6045 17.3901 24.3825 18.9811C24.3825 19.0551 24.3455 19.1291 24.3455 19.2031C24.3455 19.3881 24.2715 19.2401 24.3825 19.2771C23.9385 19.2031 24.4935 19.2401 24.4195 19.2031C24.3825 19.2031 24.2345 19.2031 24.1975 19.2031C23.7905 19.2031 23.3465 19.2401 22.9395 19.2401C22.5695 19.2401 22.1995 19.2401 21.8295 19.2771C21.4595 19.2771 21.0155 19.2401 20.6455 19.3881C19.9425 19.6841 19.9425 20.4981 19.8685 21.1271C19.7945 21.9411 19.7205 22.7551 19.6465 23.5691C19.5355 25.1231 19.4985 26.7141 19.4985 28.2681C19.4615 30.0441 19.4615 31.8571 19.4245 33.6331C19.6465 33.4111 19.8685 33.1891 20.1275 32.9301C18.7215 32.9671 17.3155 33.0041 15.9095 33.0411C15.8355 33.0411 15.5025 33.0781 15.5025 33.0781C15.5765 33.1521 15.5025 33.0781 15.5025 33.0041C15.5025 32.7081 15.5025 32.4491 15.5025 32.1531C15.5025 31.5611 15.5025 30.9691 15.5395 30.3771C15.6505 28.2681 15.9465 26.1591 16.0575 24.0501C16.0945 23.1621 14.6885 23.1621 14.6515 24.0501C14.5035 26.4921 14.1335 28.8601 14.0595 31.2651C14.0225 32.3751 13.7635 34.3361 15.3175 34.4841C16.0575 34.5581 16.8345 34.4471 17.5745 34.4471C18.4255 34.4101 19.2395 34.4101 20.0905 34.3731C20.4605 34.3731 20.7935 34.0771 20.7935 33.6701C20.8305 30.5621 20.8305 27.4911 20.9785 24.3831C21.0155 23.6431 21.0525 22.8661 21.1265 22.1261C21.1635 21.7191 21.2005 21.3491 21.2375 20.9421C21.2375 20.9051 21.2745 20.4611 21.2375 20.6091C21.2005 20.7201 21.2005 20.6461 21.3485 20.6461C21.4595 20.6461 21.6075 20.6461 21.7185 20.6461C22.4955 20.6461 23.3095 20.6091 24.0865 20.6091C24.7525 20.6091 25.3445 20.4611 25.6035 19.7581C25.7515 19.3881 25.7515 18.9441 25.7885 18.5741C25.8625 18.1671 25.8995 17.7231 25.9735 17.3161C26.0845 16.4281 26.2325 15.5401 26.3435 14.6521C26.4175 14.2451 26.1585 13.7271 25.6775 13.7641C24.3455 13.8381 23.0135 13.8381 21.7185 13.8011C21.5335 13.8011 21.3485 13.8011 21.1635 13.7641C21.0895 13.7641 20.8305 13.7271 20.7935 13.7271C20.6825 13.6901 20.7565 13.7641 20.9785 13.9121C20.9785 13.8381 20.9785 13.8011 20.9785 13.7271C20.9785 13.5791 20.9415 13.3571 20.9415 13.2091C20.9045 12.5431 20.9415 11.8771 21.0155 11.2481C21.0895 10.7301 21.1635 10.1751 21.5335 9.80511C21.8665 9.47211 22.3845 9.32411 22.8285 9.21311C24.0495 8.91711 25.2705 8.84311 26.5285 8.84311C26.9355 8.84311 27.1945 8.51011 27.2315 8.14011C27.2685 7.17811 27.3055 6.21611 27.2685 5.25411C27.2685 4.44011 27.3425 3.40411 26.5655 2.92311C25.8625 2.51611 24.8265 2.59011 24.0495 2.55311C23.0875 2.51611 22.1625 2.47911 21.2005 2.59011C19.5725 2.77511 17.9815 3.33011 16.7235 4.40311C15.5395 5.43911 14.9105 6.95611 14.6145 8.47311C14.2075 10.3971 14.1705 12.3951 13.9855 14.3191C14.2075 14.0971 14.4295 13.8751 14.6885 13.6161C13.7635 13.6901 12.8385 13.7271 11.9505 13.8011C11.2475 13.8381 10.2855 13.7641 9.91547 14.5041C9.76747 14.8371 9.80447 15.2811 9.76747 15.6511C9.76747 16.0581 9.73047 16.5021 9.73047 16.9091C9.73047 17.7971 9.73047 18.7221 9.80447 19.6101C9.80447 19.9801 10.1005 20.3131 10.5075 20.3131C11.8765 20.3131 13.2455 20.4241 14.5775 20.6831C15.4285 20.9051 15.7985 19.5731 14.9105 19.3881Z" fill="#F9F3F0"/>
</svg>
