<?xml version="1.0" encoding="UTF-8"?>
<svg id="Layer_1" viewBox="0 0 200 200" xmlns="http://www.w3.org/2000/svg">
	<defs>
		<style>.cls-1{fill:#71CB9F;}</style>
	</defs>
	<path class="cls-1" d="m163.76,124.14c-.22.1-.43.2-.64.3.28-.06.55-.19.79-.37-.05.02-.1.05-.15.07Z"/>
	<path class="cls-1" d="m148.65,126.44h-.01s-.04,0-.06-.02c.02-.02.05,0,.07.02Z"/>
	<path class="cls-1" d="m186.93,124.34c-.43,2.71-1.89,5.23-3.52,7.39-1.82,2.42-3.77,4.75-5.81,7-8.11,8.93-17.6,16.5-27,24-4.75,3.79-9.65,7.25-15.72,8.43-5.91,1.15-12.04.59-17.75-1.22-3.06-.97-1.74-5.8,1.33-4.82,5.57,1.77,11.61,2.31,17.29.69,5.78-1.65,10.39-5.86,14.97-9.55,8.68-6.99,17.31-14.15,24.67-22.56,1.7-1.94,3.44-3.92,4.83-6.09,1.02-1.61,2.37-3.94,1.75-5.92-1.23-3.9-7.83-1.76-10.49-.85-2.6.89-5.08,2.08-7.57,3.23-.05.02-.1.05-.15.07-.22.1-.43.2-.64.3-.01.01-.02.01-.03.01-1.62.77-3.16,1.57-4.68,2.54-3.03,1.92-7.17,5.22-11.03,4.28-.43-.11-.83-.3-1.23-.49-.01-.01-.03-.01-.04-.02-.02,0-.03-.01-.05-.02-.47-.17-.94-.35-1.42-.49-1.64-.48-2.41-.6-4.04-.63-4.46-.09-8.57,1.81-11.88,4.88-2.36,2.19-5.9-1.34-3.54-3.53,4.36-4.05,9.95-6.64,15.98-6.33,1.89.1,3.81.42,5.61,1.04.62.22,1.2.53,1.8.74-.09.07-.03.06.07.03.01,0,.02.01.03.01,0,0-.01-.01-.02-.02.06-.01.15-.03.22-.04h-.04c.12-.03.28-.05.3-.06.21-.05.41-.12.61-.18,1.63-.54,3.66-1.91,5.32-2.96,1.74-1.12,3.47-2.11,5.33-2.99,2.26-6.91,5.01-13.62,8.03-20.23,1.39-3.05,2.83-6.09,4.27-9.12,1.35-2.84,3-5.69,3.84-8.74.55-2.01.59-4.58-1.97-5.01-2.57-.43-4.7,1.48-6.29,3.27-1.81,2.03-3.41,4.28-5.05,6.45-1.89,2.5-3.74,5.03-5.51,7.61-1.48,2.18-2.97,4.4-4.3,6.71-1.46,3.07-2.91,6.14-4.3,9.23-1.17,2.6-5.45.72-4.57-1.93,1.15-3.47,2.76-6.77,4.61-9.94,3.32-6.97,6.7-13.91,9.63-21.05,1.8-4.41,3.46-8.89,4.71-13.48.44-1.59,1.45-3.82-.53-4.68-1.64-.72-3.68.36-4.94,1.38-.25.21-.48.44-.7.68-.13.15-.25.3-.38.45l-.02.02s-.02.02-.03.03c0,.01-.01.01-.01.02,0,0,0,.01-.01.01-.59.83-1.15,1.66-1.69,2.52-1.49,2.4-2.83,4.9-4.12,7.41-3.18,6.17-6.08,12.49-8.86,18.85-.97,2.22-1.92,4.39-2.84,6.59-.93,2.68-1.96,5.33-3.1,7.92-.08.2-.16.39-.25.59-1.15,2.6-5.51.71-4.57-1.92.93-2.6,1.94-5.18,3.01-7.74.21-.58.4-1.16.6-1.74,1.31-3.87,2.5-7.79,3.56-11.74.95-3.54,1.81-7.11,2.5-10.72.17-.92.34-1.84.48-2.76.06-.35.12-.71.17-1.06.02-.18.05-.35.07-.53,0-.04.01-.07.02-.1,0,0,.01-.04.02-.13v-.03s.01-.03.01-.05v-.02c.18-1.43.31-2.85.36-4.28.04-1.07.02-2.12-.08-3.19,0,0,0-.01,0-.02-.01-.09-.06-.48-.09-.59-.05-.24-.1-.48-.17-.71-.06-.18-.13-.35-.18-.52,0,.06.03.12.04.17-.04-.1-.07-.19-.08-.19-.05,0-.13.01-.22.02-.37.04-.75.16-1.11.28-1.16.37-2.54,1.34-3.58,2.33-2.85,2.73-4.83,6.29-6.55,9.8-1.61,3.28-2.98,6.63-4.13,10.11-2.79,8.4-4.36,17.19-7.46,25.5-.47,1.27-1.67,2.13-3.07,1.74-1.27-.34-2.16-1.79-1.75-3.07,1.6-5,2.39-10.27,3.11-15.46.59-4.31,1.33-8.78,1.39-13.14.01-.84.05-2.1-.67-2.68-.58-.47-1.44-.39-2.11-.17-2.06.68-3.45,2.97-4.56,4.7-2.55,3.98-4.29,8.47-5.98,12.86-1.99,5.14-3.87,10.33-6.01,15.4,2.66,7.65,4.9,15.45,6.64,23.35.63,2.89,1.19,5.79,1.67,8.71.31,1.91.62,3.79.61,5.73-.01,3.9-.43,7.81-1.01,11.67-.53,3.49-1.13,7.37-2.92,10.48-1.18,2.06-3.04,3.93-4.68,5.64-1.98,2.06-4.15,3.94-6.49,5.57-9.38,6.5-21.65,7.31-32.41,4.26-11.1-3.15-20.68-10.18-28.95-18.03-4.39-4.17-8.48-8.66-12.23-13.42-3.17-4.02-7.81-9.49-5.89-15.05.93-2.68,3.3-4.56,6.07-5.09,2.97-.57,5.8.26,8.47,1.54,5.75,2.76,11.28,6.09,16.88,9.15,2.83,1.54.3,5.85-2.53,4.31-2.57-1.4-5.15-2.81-7.72-4.21-2.54-1.38-5.07-2.79-7.62-4.15-1.9-1.01-4.1-2.17-6.33-1.78-5.24.91-1.22,7.19.5,9.52,6.37,8.56,13.98,16.63,22.56,23,8.11,6.02,17.56,10.61,27.82,10.92,4.95.14,10.03-.64,14.53-2.78,4.5-2.13,8.24-5.41,11.5-9.15.7-.8,1.55-1.73,2.02-2.47.13-.21.25-.42.36-.64.08-.14.15-.29.22-.44h0s.01-.02.01-.03c.58-1.49.97-3.04,1.31-4.6.76-3.56,1.16-6.94,1.39-10.6.1-1.47.17-2.96.13-4.44-.03-1.82-.42-3.64-.77-5.6-.95-5.41-2.19-10.76-3.64-16.05-2.54-9.34-5.7-18.54-9.46-27.45-2.09-4.94-4.36-9.75-7.15-14.32-.12-.1-.23-.25-.35-.35-.45-.41-1.05-.72-1.66-.89-1.25-.36-2.51-.24-3.4.54-.63.56-.79.97-.96,1.66-.03.09-.04.19-.06.28,0,.04-.01.09-.01.16-.03.37-.04.74-.03,1.12.04,1.76.35,3.28.79,5.11.13.55.27,1.09.42,1.64,1.81,4.63,3.61,9.25,5.41,13.87.15.3.29.61.44.91,1.18,2.48,2.27,5.02,2.92,7.7.76,3.2-3.68,4.27-4.82,1.33-1.02-2.6-2.03-5.21-3.05-7.81-1.87-3.87-3.55-7.78-4.88-11.88-.32-.98-.64-2-.94-3.04-.37-.95-.74-1.9-1.11-2.85-.42-1.09-.85-2.17-1.27-3.26-.18-.45-.35-.92-.53-1.37-.01,0-.16-.36-.22-.54h-.01s0-.05-.02-.07c0-.01,0-.02-.01-.02-.01-.02-.01-.03-.01-.03-.4-.9-.86-1.78-1.32-2.66-1.2-2.26-2.48-4.5-3.95-6.61-.43-.62-.47-.7-.77-1.03-.37-.4-.74-.79-1.18-1.12-1.02-.74-2.36-1.31-3.65-1.11-.96.15-1.18.56-1.52,1.49-.37,1.03-.5,2.06-.6,3.1-.12,1.4-.1,1.82.21,3.1.32,1.3.74,2.57,1.18,3.83.94,2.68,1.9,5.33,2.77,8.02,2.5,7.74,5,15.48,7.49,23.22.99,3.08-3.83,4.38-4.82,1.33-1.67-5.11-3.34-10.22-5-15.34-1.29-3.94-2.57-7.86-4.18-11.68-1.45-3.45-3.05-6.83-4.81-10.13-1.51-2.83-3.09-5.93-5.31-8.29-.97-1.04-2.33-2.21-3.87-1.93-1.34.24-2.4,1.51-2.9,2.71-1.33,3.18-.56,7.14.32,10.33,1.89,6.91,5.6,13.2,8.93,19.49,3.29,6.2,6.8,12.73,7.86,19.76.21,1.34-.31,2.68-1.74,3.08-1.26.34-2.79-.43-3.08-1.75-1.21-5.5-3.49-10.24-6.07-15.17-2.57-4.9-5.35-9.65-9.21-13.37-.39-.38-.81-.75-1.23-1.11-.02-.01-.05-.03-.07-.05,0,0-.01-.02-.02-.02-.02-.01-.04-.03-.06-.05h-.01s-.11-.08-.17-.12c-.21-.15-.43-.3-.65-.43-.21-.14-.43-.26-.65-.38-.05-.02-.2-.09-.31-.15-.03,0-.05-.02-.06-.03t-.02-.01c-.11-.03-.25-.09-.3-.1-.19-.06-.44-.09-.63-.17,0-.01-.02-.01-.03-.01h-.08c-.17,0-.36.01-.53,0h-.02s-.04.02-.07.03c-.08.03-.18.06-.27.08h-.02c-.1.07-.47.22-.62.31-.35.21-.46.27-.68.46-.53.45-.7.68-.95,1.09-.49.8-.63,1.68-.61,2.86.02.86.04.95.2,1.73.13.64.3,1.27.49,1.9.77,2.52,1.78,4.48,2.95,6.94,1.59,3.32,2.83,6.82,4.35,10.18,2.01,4.43,4.16,8.8,6.31,13.17.59,1.21.34,2.69-.9,3.42-1.11.64-2.83.31-3.42-.9-2.6-5.3-5.22-10.59-7.57-16-.62-1.43-1.22-2.86-1.81-4.3-.26-.65-.53-1.3-.77-1.95-.01-.02-.01-.03-.01-.04h0c-.02-.05-.05-.11-.08-.18-.59-1.26-1.22-2.51-1.8-3.78-2.52-5.48-5.23-13.37.41-17.94,2.13-1.72,4.65-2.55,7.33-1.77.8.24,1.56.57,2.29.98-1.29-3.36-2.21-6.83-2.48-10.42-.34-4.54.68-9.43,4.72-12.08,4.08-2.68,8.79-.65,11.67,2.75,1.46,1.71,2.71,3.62,3.85,5.6.11-.44.24-.88.39-1.3,1.27-3.57,4.29-5.44,8.09-4.92,3.38.47,5.96,2.62,7.88,5.32,1.69,2.36,3.1,4.83,4.34,7.38,1.56-2.57,4.45-4.18,7.74-3.85,3.27.33,5.75,2.1,7.43,4.83,3.7,5.97,6.36,12.72,8.92,19.23.24.6.47,1.2.7,1.81,1.83-4.71,3.52-9.47,5.46-14.14,2.03-4.9,4.27-10.2,8.06-14.04,2.15-2.17,5.26-3.54,8.33-2.76,2.86.72,4.41,3.09,4.86,5.8,1.5-3.72,3.16-7.41,5.26-10.83,2.16-3.51,4.96-7.22,8.77-9.06,2.01-.98,4.85-1.88,6.94-.69.96.54,1.66,1.45,2.11,2.43,1.09,2.38,1.12,5.17.98,7.74-.1,1.98-.31,3.95-.59,5.93.71-1.39,1.45-2.78,2.21-4.15,1.24-2.25,2.54-4.49,4.11-6.52,2.22-2.88,5.9-5.13,9.63-4.74,2.68.28,5.2,1.87,6.18,4.45.97,2.55-.03,5.38-.75,7.86-1.11,3.82-2.47,7.55-3.95,11.23,1.24-1.51,2.61-2.9,4.29-3.96,2.87-1.81,6.69-2.28,9.73-.6,3.23,1.79,4.14,5.45,3.6,8.87-.56,3.52-2.47,6.8-3.98,9.98-1.61,3.37-3.22,6.75-4.78,10.15-2.28,5-4.4,10.07-6.26,15.23,3.48-1.48,7.07-2.7,10.83-2.81,2.51-.08,5.05.51,6.99,2.17,2.23,1.91,2.91,4.84,2.46,7.64Z"/>
	<path class="cls-1" d="m113.02,47.48c.29-.99.62-1.96.99-2.92.04-.11.36-.91.11-.3.1-.24.2-.47.31-.71.21-.47.44-.93.67-1.39.94-1.83,2.04-3.58,3.29-5.21.37-.48.4-1.38.25-1.93-.16-.58-.61-1.21-1.15-1.49-.58-.31-1.28-.46-1.93-.25s-1.08.6-1.49,1.15c-2.67,3.49-4.65,7.5-5.88,11.72-.37,1.25.44,2.78,1.75,3.08s2.68-.4,3.08-1.75h0Z"/>
	<path class="cls-1" d="m93.69,41.87c-1.43-7.46-2.07-15.03-1.96-22.63.04-3.22-4.96-3.22-5,0-.11,8.04.63,16.06,2.14,23.96.25,1.33,1.85,2.08,3.08,1.75,1.39-.38,2-1.74,1.75-3.08h0Z"/>
	<path class="cls-1" d="m74.09,49.19c-3.66-3.91-7.69-7.44-12-10.63-1.05-.78-2.84-.21-3.42.9-.69,1.31-.23,2.59.9,3.42.25.19.51.38.76.57.14.11.28.21.42.32.19.15.18.14,0,0,.5.39,1,.78,1.49,1.18.98.8,1.95,1.62,2.89,2.47,1.89,1.69,3.7,3.46,5.43,5.31.9.96,2.64.97,3.54,0,.94-1.03.96-2.51,0-3.54h0Z"/>
</svg>