<svg width="37" height="37" viewBox="0 0 37 37" fill="none" xmlns="http://www.w3.org/2000/svg">
<path d="M15.8246 5.45131C17.9877 5.3483 20.1165 5.2453 22.2796 5.3483C23.4126 5.38264 24.5457 5.45131 25.7131 5.48564C27.0521 5.51998 28.4599 5.45131 29.7303 5.96633C31.0007 6.48136 31.55 7.61441 31.6874 8.8848C31.859 10.4985 31.7904 12.1466 31.7904 13.7604C31.8247 17.2282 31.859 20.6617 31.8934 24.1295C31.9277 26.8076 31.7217 30.5501 28.6315 31.5458C27.1551 32.0265 25.5071 31.8892 23.962 31.8892C22.2109 31.9235 20.4598 31.9235 18.6744 31.9579C16.9577 31.9922 15.2066 31.9922 13.4898 32.0265C11.8761 32.0609 10.1937 32.1639 8.61429 31.6832C7.4469 31.3398 6.24518 30.5501 5.79882 29.3827C5.52414 28.6617 5.48981 27.872 5.42114 27.1166C5.35247 26.2583 5.31814 25.4342 5.2838 24.5759C5.07779 21.0394 5.11213 17.5715 5.2838 14.1037C5.42114 11.3569 5.45548 7.68308 8.09926 6.06934C8.61429 5.76032 9.16365 5.58865 9.78167 5.55431C10.6057 5.51998 10.6057 4.24959 9.78167 4.24959C8.33961 4.28392 7.00055 5.00495 6.0735 6.10367C5.00912 7.33973 4.52843 8.8848 4.28809 10.4642C4.01341 12.2496 3.97907 14.035 3.9104 15.8205C3.84173 17.6745 3.84173 19.563 3.87607 21.417C3.9104 23.2711 3.97907 25.1596 4.11641 27.0136C4.21942 28.6274 4.45976 30.1724 5.66148 31.3398C8.1336 33.7776 12.1164 33.2283 15.2753 33.1939C18.9834 33.1596 22.6916 33.1596 26.3998 33.0566C28.0135 33.0222 29.6273 32.7476 30.8633 31.6489C31.9964 30.6531 32.6487 29.1767 32.9234 27.7347C33.2668 25.9836 33.1638 24.1638 33.1638 22.3784C33.1638 20.5243 33.1294 18.6359 33.1294 16.7818C33.1294 14.9277 33.0951 13.0393 33.0951 11.1852C33.0951 9.64017 33.1294 8.02643 32.4084 6.6187C30.8633 3.80323 27.0178 4.21525 24.3397 4.11225C22.2796 4.04358 20.2195 3.94057 18.1251 4.04358C17.3697 4.07791 16.58 4.11225 15.8246 4.14658C15.0006 4.21525 15.0006 5.48564 15.8246 5.45131Z" fill="#F9F3F0"/>
<path d="M28.2538 8.91917C28.2881 8.95351 28.3225 8.95351 28.2538 8.91917C28.2881 8.95351 28.3225 8.95351 28.3568 8.98784C28.4255 9.02218 28.4598 9.09085 28.5285 9.15952C28.6315 9.26252 28.4941 9.09085 28.5628 9.19385C28.5972 9.26252 28.6315 9.33119 28.6658 9.39986C28.7002 9.46853 28.7002 9.46853 28.6658 9.39986C28.6658 9.4342 28.7002 9.46853 28.7002 9.50287C28.7002 9.57154 28.7345 9.60587 28.7345 9.67454C28.7345 9.74321 28.7345 9.74321 28.7345 9.67454C28.7345 9.70888 28.7345 9.74321 28.7345 9.77755C28.7345 9.81188 28.7345 10.0522 28.7345 9.88055C28.7002 10.2239 28.5972 10.3612 28.4255 10.6359C28.3911 10.7046 28.3911 10.7046 28.4255 10.6703C28.3911 10.7046 28.3568 10.7389 28.3225 10.7733C28.2881 10.8419 28.2195 10.8763 28.1508 10.9449C28.2538 10.8419 28.1165 10.9793 28.1165 10.9793C28.0478 11.0136 27.9791 11.0479 27.9105 11.0823C27.8418 11.1166 27.8418 11.1166 27.9105 11.0823C27.8761 11.0823 27.8418 11.1166 27.8074 11.1166C27.7388 11.1166 27.7044 11.1509 27.6358 11.1509C27.6014 11.1509 27.5671 11.1509 27.5328 11.1853C27.6014 11.1853 27.6014 11.1853 27.5328 11.1853C27.4641 11.1853 27.3954 11.1853 27.2924 11.1853C27.2581 11.1853 27.0864 11.1509 27.2238 11.1853C27.1551 11.1853 27.0864 11.1509 27.0177 11.1509C26.9834 11.1509 26.9491 11.1166 26.9147 11.1166C26.9834 11.1509 26.9834 11.1509 26.9147 11.1166C26.8804 11.0823 26.8117 11.0823 26.7774 11.0479C26.7431 11.0479 26.5714 10.9106 26.6744 10.9793C26.6057 10.9449 26.5714 10.8763 26.5027 10.8419C26.4684 10.8076 26.4341 10.7733 26.3997 10.7046C26.5027 10.8076 26.3654 10.6359 26.331 10.6016C26.2967 10.5329 26.2624 10.4986 26.228 10.4299C26.1937 10.3956 26.228 10.3956 26.228 10.4642C26.228 10.4299 26.1937 10.3956 26.1937 10.3612C26.1594 10.2926 26.1594 10.2239 26.125 10.1552C26.125 10.0866 26.125 10.0866 26.125 10.1552C26.125 10.1209 26.125 10.0866 26.125 10.0522C26.0907 9.70888 25.8504 9.39986 25.4727 9.39986C25.1293 9.39986 24.8203 9.67454 24.8203 10.0522C24.889 11.3913 26.022 12.5243 27.3954 12.49C28.0478 12.4557 28.7002 12.2153 29.1465 11.7346C29.6272 11.2196 30.0049 10.4642 29.9706 9.74321C29.9019 8.95351 29.4899 8.26681 28.8375 7.85479C28.5628 7.64878 28.1165 7.78612 27.9448 8.09514C27.8418 8.36982 27.9448 8.71317 28.2538 8.91917Z" fill="#F9F3F0"/>
<path d="M18.0201 12.3183C20.5609 11.9749 23.1704 12.9363 24.6124 15.0994C25.2305 16.0608 25.6425 17.1595 25.6082 18.3269C25.6082 19.7346 25.0588 21.1424 24.3378 22.3441C23.136 24.3698 20.8699 25.6059 18.5352 25.6059C16.2691 25.6059 14.1746 24.3012 13.0072 22.4128C11.5308 20.0093 11.8399 16.9535 13.5909 14.7904C13.7969 14.5157 13.8656 14.138 13.5909 13.8634C13.3506 13.623 12.9042 13.5887 12.6639 13.8634C10.7755 16.1981 10.1574 19.3226 11.3935 22.1037C12.4922 24.5759 14.8613 26.4643 17.5738 26.8076C20.2519 27.151 23.136 26.0523 24.8185 23.8892C25.8142 22.6188 26.5352 20.9707 26.7755 19.3913C26.9816 17.9492 26.7755 16.5071 26.1232 15.2024C25.4365 13.829 24.3034 12.6273 22.9644 11.9063C21.3163 11.0136 19.4622 10.8076 17.6425 11.0479C17.2991 11.0822 17.0931 11.5286 17.1961 11.8376C17.3334 12.2153 17.6768 12.3526 18.0201 12.3183Z" fill="#F9F3F0"/>
</svg>
