<svg width="37" height="37" viewBox="0 0 37 37" fill="none" xmlns="http://www.w3.org/2000/svg">
<path d="M10.5821 14.6889C10.5451 14.3189 10.5451 13.9489 10.4341 13.5789C10.3601 13.3199 10.2121 13.0609 10.0271 12.8759C9.80508 12.6539 9.54608 12.5059 9.25008 12.3949C9.10208 12.3209 8.84308 12.3949 8.73208 12.4689C8.58408 12.5429 8.43608 12.7279 8.39908 12.8759C8.36208 13.0609 8.36208 13.2459 8.47308 13.3939C8.58408 13.5419 8.69508 13.6529 8.88008 13.7269C8.91708 13.7269 8.91708 13.7269 8.95408 13.7639C8.91708 13.7269 8.84308 13.7269 8.80608 13.6899C8.91708 13.7269 8.99108 13.7639 9.06508 13.8379C9.02808 13.8009 8.95408 13.7639 8.91708 13.7269C8.99108 13.8009 9.06508 13.8379 9.10208 13.9119C9.06508 13.8749 9.02808 13.8009 8.99108 13.7639C9.06508 13.8379 9.10208 13.9119 9.13908 14.0229C9.10208 13.9859 9.10208 13.9119 9.06508 13.8749C9.13908 14.0229 9.17608 14.2079 9.17608 14.3559C9.17608 14.2819 9.17608 14.2449 9.13908 14.1709C9.17608 14.3559 9.17608 14.5409 9.17608 14.6889C9.17608 14.8739 9.25008 15.0589 9.36108 15.1699C9.47208 15.2809 9.69408 15.3919 9.84208 15.3549C10.0271 15.3549 10.2121 15.2809 10.3231 15.1699C10.4711 15.0589 10.5821 14.8739 10.5821 14.6889Z" fill="#F9F3F0"/>
<path d="M4.58698 12.3947C3.21798 12.9867 3.32898 15.0587 3.21798 16.2797C3.03298 18.0927 2.95898 19.8687 2.95898 21.6447C2.95898 25.1597 3.14398 28.7487 3.55098 32.2267C3.62498 32.9667 3.92098 33.6327 4.66098 33.8917C5.40098 34.1507 6.32598 34.0767 7.10298 34.0767C8.54598 34.0397 10.47 33.9657 10.729 32.1897C10.84 31.5607 10.766 30.8947 10.766 30.2287C10.766 29.5997 10.766 28.9707 10.766 28.3417C10.766 26.9357 10.766 25.4927 10.729 24.0867C10.729 20.9417 10.692 17.7967 10.581 14.6887C10.544 13.8007 9.17498 13.8007 9.17498 14.6887C9.35998 19.6467 9.32298 24.6417 9.35998 29.6367C9.35998 30.1547 9.35998 30.7097 9.39698 31.2277C9.39698 31.7457 9.50798 32.3377 8.87898 32.5227C8.21298 32.7077 7.43598 32.7077 6.76998 32.7077C6.39998 32.7077 6.02998 32.7077 5.65998 32.6707C5.40098 32.6337 5.14198 32.6707 5.03098 32.4487C4.91998 32.1897 4.95698 31.8567 4.91998 31.5977C4.88298 31.1907 4.84598 30.7467 4.80898 30.3397C4.73498 29.5627 4.69798 28.7487 4.62398 27.9717C4.51298 26.3807 4.43898 24.7527 4.40198 23.1247C4.36498 21.3487 4.40198 19.6097 4.51298 17.8337C4.58698 16.9087 4.66098 16.0207 4.73498 15.0957C4.80898 14.5407 4.80898 13.8007 5.32698 13.5787C5.65998 13.4307 5.73398 12.9127 5.58598 12.6167C5.36398 12.2837 4.95698 12.2467 4.58698 12.3947Z" fill="#F9F3F0"/>
<path d="M25.9001 30.71C25.8631 31.45 25.7151 32.301 25.9371 33.004C26.1221 33.707 26.7141 34.114 27.4171 34.151C28.1571 34.225 28.9341 34.077 29.6741 34.003C30.5251 33.929 31.3391 33.892 32.1901 33.818C32.8561 33.781 33.7811 33.855 34.1511 33.189C34.4841 32.597 34.2991 31.672 34.2991 31.043C34.2991 29.452 34.2991 27.824 34.2251 26.233C34.0771 23.088 33.7811 19.869 32.8561 16.872C32.4861 15.614 31.9681 14.393 31.0431 13.431C30.0441 12.432 28.7121 11.988 27.3431 11.877C24.3091 11.581 21.1641 12.765 18.9811 14.911C19.3881 15.059 19.7581 15.244 20.1651 15.392C20.2761 14.467 20.2391 13.468 19.4251 12.876C18.7591 12.395 17.8711 12.506 17.0941 12.469C16.3541 12.432 15.6141 12.432 14.8741 12.506C14.2081 12.58 13.5791 12.691 13.2091 13.32C12.6541 14.208 12.6911 15.318 12.6541 16.317C12.6171 17.464 12.5801 18.611 12.5801 19.758C12.5801 22.163 12.5801 24.605 12.6911 27.01C12.7651 28.231 12.8391 29.415 12.9871 30.636C13.0611 31.228 13.1351 31.857 13.2091 32.449C13.2831 33.004 13.3571 33.559 13.8381 33.892C14.2451 34.188 14.6891 34.188 15.1701 34.151C15.8361 34.114 16.5021 34.04 17.2051 33.966C18.1671 33.892 19.8321 34.077 19.9801 32.745C20.0541 32.19 19.9801 31.561 19.9801 31.006C19.9801 30.377 19.9801 29.785 19.9801 29.156C19.9801 27.898 19.9801 26.64 19.9431 25.382C19.9431 23.421 19.7211 20.905 21.2011 19.314C21.8671 18.574 22.9031 18.13 23.9021 18.463C24.7531 18.759 25.3821 19.499 25.7521 20.313C26.2701 21.46 26.2331 22.792 26.1961 24.013C26.1591 24.975 26.2331 25.9 26.1961 26.862C26.1591 27.75 27.5651 27.75 27.6021 26.862C27.6021 26.122 27.5651 25.382 27.5651 24.642C27.5651 23.569 27.6391 22.496 27.4541 21.386C27.1951 19.61 26.1961 17.871 24.4571 17.205C22.6441 16.502 20.6461 17.538 19.6841 19.092C18.5741 20.831 18.5741 22.94 18.6111 24.938C18.6111 27.269 18.6481 29.6 18.6481 31.894C18.6481 32.042 18.6481 32.19 18.6481 32.338C18.6481 32.375 18.6481 32.412 18.6481 32.412C18.6111 32.597 18.6481 32.597 18.7961 32.375C18.7961 32.375 18.1301 32.449 18.0931 32.449C17.4641 32.486 16.8721 32.56 16.2431 32.597C15.9841 32.634 15.6881 32.634 15.4291 32.671C15.2811 32.671 14.9111 32.782 14.7631 32.708C14.7261 32.708 14.6891 32.486 14.6891 32.375C14.6521 32.042 14.6151 31.709 14.5411 31.376C13.9861 26.825 14.0231 22.2 14.1341 17.612C14.1711 16.576 14.0601 15.429 14.3191 14.43C14.3561 14.319 14.3931 14.208 14.4301 14.097C14.4671 14.06 14.5781 13.801 14.4671 13.949C14.5411 13.875 14.5411 13.912 14.6521 13.875C14.9851 13.801 15.2811 13.764 15.6141 13.764C16.3911 13.727 17.1681 13.764 17.9081 13.801C18.2041 13.801 18.6481 13.727 18.8331 14.023C19.0551 14.356 18.9441 14.948 18.9071 15.281C18.7221 16.021 19.6101 16.28 19.9801 15.873C21.5711 14.282 23.7541 13.32 26.0481 13.209C27.1581 13.172 28.3421 13.246 29.3411 13.838C30.2661 14.356 30.8211 15.281 31.1911 16.243C32.1531 18.648 32.4861 21.349 32.7081 23.902C32.9301 26.566 32.9301 29.267 32.9301 31.931C32.9301 32.042 32.8931 32.338 32.9301 32.449C32.8931 32.634 32.9671 32.634 33.0781 32.412C32.9671 32.412 32.8561 32.412 32.7081 32.449C32.3381 32.486 32.0051 32.486 31.6351 32.523C30.8581 32.597 30.0811 32.634 29.3041 32.708C28.8971 32.745 28.4531 32.782 28.0461 32.782C27.8611 32.782 27.4171 32.893 27.2691 32.745C27.1211 32.597 27.2321 32.153 27.2321 32.005C27.2321 31.561 27.2691 31.154 27.2691 30.71C27.3061 29.822 25.9371 29.822 25.9001 30.71Z" fill="#F9F3F0"/>
<path d="M9.8783 7.10387C10.0633 7.95487 9.5083 8.95387 8.8423 9.50887C7.9913 10.2119 6.9553 10.1379 5.9933 9.76787C4.1063 9.02787 3.4403 6.62287 4.8833 5.10587C5.6973 4.25487 6.9553 3.95887 8.0653 4.43987C8.39829 4.58787 8.8053 4.55087 9.0273 4.18087C9.2123 3.88487 9.1383 3.36687 8.7683 3.21887C7.2513 2.58987 5.6233 2.70087 4.3283 3.73687C3.2553 4.58787 2.5893 5.99386 2.7373 7.36286C2.8853 8.76887 3.6993 10.1009 4.9573 10.8039C6.3263 11.5439 7.9913 11.7289 9.3233 10.8779C9.9893 10.4709 10.5443 9.87887 10.8403 9.17587C11.2103 8.36187 11.3953 7.65887 11.2103 6.73387C11.1363 6.36387 10.6923 6.14186 10.3593 6.25286C9.9893 6.32686 9.8043 6.73387 9.8783 7.10387Z" fill="#F9F3F0"/>
</svg>
