<?xml version="1.0" encoding="UTF-8"?>
<svg id="Layer_1" viewBox="0 0 500 500" xmlns="http://www.w3.org/2000/svg">
	<path fill="#71CB9F" d="M341.04,258.48c-7.26-7.97-16.1-14.64-25.74-19.85,4.23-15.05,8.4-30.12,12.52-45.2,5.73-20.96,11.92-41.93,16.45-63.19,3.95-18.52,8.01-50.42-12.81-61.23-4.69-2.44-10.13-3.4-15.38-2.86-.94,.1-2.03,.44-3,.43-.09,0-.18,.04-.28,.06-.26-.07-1.67-.26-2.22-.2-9.81,1.06-16.18,10.08-20.08,18.29-5.2,10.95-7.96,22.7-10.22,34.54-2.3,12.02-4.54,24.07-6.59,36.14-2.76,16.19-4.97,32.46-6.53,48.79-4.81-21.11-11.04-41.85-18.64-62.2-5.25-14.05-10.35-28.77-17.66-41.91-6.14-11.03-15.52-20.98-28.53-22.91-11.07-1.64-23.99,2.42-28.43,13.6-2.42,6.08-2.29,13.12-1.78,19.54,1.69,21.28,8.07,42.31,14.93,62.41,4.4,12.9,9.25,25.78,14.73,38.36-2.93-2.22-6.09-4.13-9.57-5.51-13.27-5.3-29.14-.16-34.21,12.86-3.01-1.87-6.24-3.32-10.1-4.08-7.62-1.5-14.48,.19-20.43,5.27-11.18,9.55-11.24,26.16-8.07,39.31,3.67,15.23,12.24,28.31,21.4,40.77,3.06,4.17,6.43,8.55,10.2,12.51-.2,.59-.34,1.22-.4,1.91-.62,6.34-.87,12.71-.71,19.08,.08,3.09,2.66,6.05,5.91,5.91,3.13-.14,5.99-2.6,5.91-5.91-.1-4.02,.01-8.04,.23-12.06,4.26,2.49,8.96,4.12,14.21,4.29,12.17,.41,19.94-8.8,21.63-19.44,2.62,1,5.4,1.7,8.37,2,9.13,.9,16.98-3.78,21.2-11.83,2.7-5.15,3.42-10.41,3.33-15.8,7.88,4.51,16.91,7.46,25.15,9.76,1.69,.47,3.4,.85,5.11,1.28-13.15,6.74-22.15,18.83-25.29,33.97-1.54,7.42,9.85,10.6,11.4,3.14,3.15-15.16,12.7-25.85,27.59-29.73,5.36-1.4,9.43-1.83,15.19-1.8,1.68,0,3.36,.07,5.03,.21,.08,0,.18,.02,.28,.03,.1,0,.2,.02,.3,.03,.84,.1,1.83,.23,1.1,.12,.2,.02,.39,.05,.59,.06,6.56,.57,8.18-10.63,1.57-11.61-.52-.08-1.05-.12-1.57-.19,0,0,0-.02,0-.02-.53-.05-1.04-.11-1.56-.16-.19-.02-.38-.04-.57-.06-9.02-.88-17.81-2.33-26.98-4.4-11.7-2.65-23.8-6.02-34-12.54-3.94-2.51-7.5-5.53-9.38-9.61-.59-1.29-.99-3.69-.92-5.39,.05-1.13,.21-2.3,.48-3.43,.5-.72,.81-1.57,.92-2.52,.2-.38,.44-.72,.7-1.06,1.04-.5,1.94-1.25,2.58-2.19,1.13-.6,2.36-1.02,3.56-1.42,4.91-1.66,9.97-2.95,15.07-3.87,5.91-1.07,11.93-1.49,17.95-1.44,.6,.09,1.22,.1,1.84,0,2.63,.07,5.26,.22,7.87,.49,17.9,1.85,35.47,9.23,49.36,20.66,7.29,6,14.03,13.17,17.75,21.98,3.77,8.91,4.28,19.17,2.58,28.62-3.58,19.98-15.58,37.39-27.41,53.41-11.76,15.92-25.56,30.91-42.87,40.86-18.35,10.54-39.43,14.12-59.75,7.43-19.98-6.57-36.64-21.57-45.24-40.71-3.11-6.93-13.3-.92-10.2,5.96,17.85,39.72,65.74,60.2,106.46,44.49,21.35-8.24,38.82-23.39,53.18-40.93,14.15-17.28,28.31-36.71,35-58.26,6.92-22.29,3.42-45.57-12.49-63.05Zm-166.11,55.07c-10.68-1.35-18.5-12.4-24.35-20.38-6.62-9.03-13.31-18.42-17.23-28.99-3.44-9.27-6.23-20.89-1.97-30.38,2.05-4.57,6.54-8.69,11.81-8.29,5.35,.41,9.18,2.99,13.08,6.17,.69,15.98,9.26,31.28,15.42,45.6,3.35,7.78,8.07,15.47,14.3,21.25,1.54,7.53-2.08,16.16-11.07,15.03Zm33.51-17.23c-12.37,.07-20.66-12.2-25.25-22.1-2.85-6.16-5.42-12.48-8.18-18.69-2.85-6.42-5.36-13.01-6.35-20-.8-5.66-1.73-13.25,3.3-17.32,3.82-3.09,9.4-3.63,14.01-2.33,6.72,1.89,12.03,6.95,16.46,12.13,4.63,5.42,8.51,11.47,10.55,18.29-.27,.94-.49,1.93-.65,2.95-1.07,6.84,.09,13.32,4.18,18.98,.45,.63,1,1.16,1.49,1.76,1.05,8.43,3.36,26.27-9.56,26.34Zm17.51-63.84c-.18,.07-.34,.17-.52,.24-8.9-16.32-16.2-33.54-22.65-50.95-7.21-19.45-13.63-39.47-17.29-59.92-1.28-7.13-2.13-14.37-1.69-21.63,.07-1.12,.71-4.6,1.2-5.6,1.31-2.71,5.52-5.32,9.48-5.91,11.32-1.7,19.88,6.65,25.2,15.64,6.98,11.79,11.57,25.26,16.4,38.02,10.28,27.11,18.18,54.9,23.48,83.37-11.56,.4-23.08,2.53-33.62,6.73Zm51.31-5.95c1.07-20.08,3.29-40.04,6.48-59.89,3.16-19.65,6.18-39.69,11.14-58.98,2.26-8.79,5.12-19.36,11.52-26.13,3.04-3.22,5.28-3.13,9.39-3.47,.24-.02,.49-.1,.73-.15,.04,0,.04-.01,.07-.02,.05,0,.06,0,.12,0,.91-.02,1.81-.11,2.72-.08,.46,.01,.92,.06,1.37,.07,.13,0,.21,0,.3,0,0,0,.04,.02,.1,.03,1.2,.26,2.36,.54,3.53,.93,.18,.06,.29,.09,.38,.12,.08,.05,.2,.13,.39,.23,.61,.35,1.21,.68,1.8,1.05,.25,.15,.37,.22,.45,.26,.04,.05,.12,.13,.29,.29,.64,.59,1.26,1.18,1.85,1.83,1.05,1.15,.1-.1,.95,1.25,.45,.72,.87,1.44,1.28,2.18,.83,1.53,1.43,3.33,2.01,5.63,2.87,11.35,1.15,24.14-1.25,35.41-4.21,19.77-9.93,39.28-15.25,58.77-4.34,15.91-8.74,31.8-13.19,47.68-5.55-2.24-11.24-4.07-16.99-5.33-3.34-.73-6.76-1.26-10.2-1.68Z"/>
</svg>