<?xml version="1.0" encoding="UTF-8"?>
<svg id="Layer_1" viewBox="0 0 500 500" xmlns="http://www.w3.org/2000/svg">
	<path fill="#71CB9F" class="cls-1" d="M410.37,152.73c-7.09-28.76-31.18-53.43-62.2-52.81-7.81,.16-7.84,12.31,0,12.15,25.74-.51,44.66,20.27,50.49,43.89,2.7,10.96,4.58,25.56-2.51,35.29-6.67,9.15-19.08,13.22-29.25,16.93-13.09,4.77-26.47,8.7-39.76,12.87-12.31,3.86-25.79,7.34-37.22,13.4-8.97,4.76-17.6,10.75-26.33,15.94-4.85,2.89-10.34,5.44-14.75,9-3.21,2.59-6.24,5.48-9.1,8.57,10.78-31.96,36.28-58.94,68.43-69.91,7.36-2.51,4.2-14.25-3.23-11.72-33.14,11.31-59.73,37.24-73.25,68.95,2.04-18.12,8.14-35.9,16.83-51.69,10.63-19.33,25.32-36.58,40.13-52.82,7.44-8.15,14.8-15.42,24.5-20.95,6.79-3.87,.68-14.38-6.13-10.49-18.84,10.74-33.12,28.92-46.45,45.65-15.9,19.95-29.11,41.28-36.17,65.84-6.6-26.25-17.69-51.23-35.79-71.8-10.12-11.5-22.44-21.43-36.27-28.1-14.02-6.75-32.05-12.8-46.64-4.39-12.16,7.01-18.87,21.86-18.29,35.6,.66,15.56,10.24,29.05,22.21,38.32,15.94,12.35,35.68,17.09,54.8,22.16,18.46,4.9,37.55,10.84,50.53,25.68,.32,.37,.65,.67,.99,.93,1.25,6.8,2.24,13.64,3.05,20.51,.07,5.63,.46,11.26,1.27,16.89,.08,.55,.29,1.04,.55,1.5,.4,5.14,.75,10.28,1.05,15.42,1.14,19.45,1.87,39.16-2.9,58.2-2.78,1.29-5.34,3.14-7.66,5.29-3.65,3.38-9.23,12.19-15.13,10.96-2.33-.49-4.21-2.83-5.86-4.37-2.57-2.39-5.2-4.55-8.47-5.9-17.28-7.12-31.42,8.33-38.32,22.27-3.46,6.99,7.02,13.15,10.49,6.13,4.18-8.44,14.78-24.55,25.93-15.53,4.39,3.55,7.82,7.98,13.64,9.23,6.45,1.39,12.49-1.45,17.4-5.44,4.22-3.43,7.34-8.56,12.12-11.24,4.48-2.51,8.21-.1,11.57,3.05,7.96,7.48,17.82,21.57,29.97,12.6,5.6-4.14,9.43-9.93,16.79-11.24,5.03-.89,11.93,1.73,12.2,7.61,.37,7.79,12.52,7.83,12.15,0-.7-14.83-16.21-22.86-29.62-18.82-7.16,2.16-12.19,6.81-17.56,11.71-2.73,2.49-4.54,.47-6.89-1.78-2.34-2.24-4.48-4.68-6.76-6.99-3.79-3.84-8.07-7.32-13.26-8.73,3.62-17.13,3.5-34.74,2.57-52.18-.17-3.22-.38-6.43-.59-9.64,5.06-10.95,13.07-22.71,22.53-29.8,4.23-3.16,9.33-5.56,13.86-8.25,4.84-2.88,9.71-5.73,14.53-8.65,4.82-2.92,9.42-6.34,14.66-8.45,27.14-10.92,56-16.96,82.93-28.41,11.16-4.74,22.25-11.48,27.32-23.04,5.32-12.14,3.94-26.84,.84-39.4Zm-273.73,48.97c-13.32-5.15-26.34-13.58-33.25-26.46-5.64-10.5-5.18-23.91,2.62-33.28,9.63-11.57,25.29-7.09,37.25-1.9,12.8,5.55,24.1,14.07,33.66,24.18,10.01,10.58,17.79,22.7,23.86,35.67-2.59-2.26-5.3-4.38-8.08-6.34-14.2-9.98-30.37-17.29-45.89-24.95-6.99-3.45-13.15,7.03-6.13,10.49,14.63,7.22,29.69,14.17,43.32,23.2,8.6,5.69,16.64,12.85,20.62,22.29-20.63-11.53-45.93-14.38-67.98-22.9Z"/>
</svg>