<?xml version="1.0" encoding="UTF-8"?>
<svg id="Layer_1" viewBox="0 0 200 200" xmlns="http://www.w3.org/2000/svg">
	<defs>
		<style>.cls-1{fill:#71CB9F;}</style>
	</defs>
	<path class="cls-1" d="m178.03,98.97c-.44-15.37-4.67-30.76-12.57-43.99-.19-.31-.38-.63-.57-.94-.67-1.08-1.36-2.14-2.07-3.19-7.72-11.29-18.3-20.52-30.94-25.94-13.94-5.98-29.86-7.67-44.56-3.55-3.56.99-7.01,2.35-10.32,3.99-2.89,1.43-.36,5.74,2.52,4.32,8.44-4.18,17.84-5.91,27.19-5.53h0c2.73,4.34,3.38,9.44,3.49,14.51.06,2.83-.05,5.65-.08,8.48-.03,2.86.21,5.79,1.55,8.36,2.53,4.82,8.74,6.5,13.69,4.85,5.69-1.89,8.87-6.67,11.94-11.48,1.43-2.23,2.99-4.55,5.45-5.74,1.81-.87,4.11-1.17,5.59.3.77.76,1.68.87,2.46.59,1.72,1.75,3.35,3.6,4.89,5.54,1.35,1.7,2.62,3.46,3.81,5.27-.59,1.06-1.65,1.87-2.71,2.41-2.24,1.14-4.93,1.2-7.38,1.41-4.51.38-8.96,1.44-12.72,4.07-3.68,2.58-6.36,6.28-6.66,10.86-.27,4.17,1.74,7.97,4.21,11.17,2.5,3.26,5.53,6.15,7.61,9.72.24.41.42.94.7,1.32.03.03.06.17.08.25.02-.03.04-.05.05-.08.04-.1.04.01.02.07-.01.12-.04.08-.07.01-.21.32-.76.63-1.04.85-.44.35-.87.71-1.24,1.14-1.51,1.73-2.25,3.84-2.39,6.11-.29,4.48,1.86,8.68,4.51,12.13,2.73,3.55,6.41,7.17,6.67,11.9.32,5.72-2.04,11.91,1.47,17.12,1.7,2.52,4.54,3.95,7.32,3.91-3.33,4.63-7.18,8.86-11.54,12.54-11.41,9.64-25.89,14.12-40.7,14.18-8.35.04-16.63-1.19-24.7-3.27-7.67-1.96-15.25-4.58-22.32-8.15-6.86-3.47-13.24-7.87-18.39-13.61-4.65-5.19-8.08-11.44-10.25-18.05-1.7-5.19-2.68-10.56-2.97-15.97.68.07,1.33.29,1.98.63,1.64.88,2.79,1.97,4.2,3.25,3.19,2.91,6.51,5.93,10.9,6.74,3.04.57,6.05.29,9.11.13.52-.02,2.48-.4,2.92,0,.22.21.03,1.72.03,2.12,0,4.3.32,9.09,3.1,12.59,1.44,1.83,3.53,3.02,5.84,3.38,2.76.43,5.44-.26,8.19-.27,4.64-.02,7.35,4.12,9.01,7.96,2.03,4.7,3.24,9.9,6.96,13.65,3.13,3.15,8.32,4.7,12.52,2.95,5.45-2.26,5.45-8.3,5.44-13.34-.01-3.04-.16-6.11-.83-9.08-.57-2.58-1.94-5.02-2.26-7.65-.52-4.25,4.78-5.14,7.64-7.07,4.07-2.77,5.59-7.54,3.86-12.19-1.88-5.02-6.18-7.95-11.18-9.44-2.52-.75-5.12-1.14-7.71-1.57-3.03-.5-6.05-1.06-9.05-1.7-3.08-.66-6.15-1.39-9.19-2.2-2.09-.55-4.06-1.25-5.87-2.45-.66-.43-1.35-1-1.81-1.59-.52-.66-.73-1.21-.73-1.8.02-1.68,1.87-3.24,2.93-4.6,1.71-2.19,2.38-4.62,1.98-7.38-.35-2.38-1.42-4.56-1.97-6.89-.58-2.38.22-4.21,1.63-6.14,1.61-2.21,3.47-4.26,5.26-6.32,7.37-8.55,14.94-17.58,16.16-29.26.29-2.74.08-5.51-.52-8.2-.71-3.14-5.53-1.81-4.82,1.33,2.4,10.68-4.32,20.7-10.84,28.48-1.83,2.19-3.73,4.33-5.58,6.51-1.78,2.1-3.76,4.23-5.09,6.66-1.37,2.5-1.7,5.13-1.11,7.91.49,2.28,1.63,4.4,1.97,6.71.29,1.97-.7,3.22-1.92,4.63-1.61,1.87-3.01,3.84-3.08,6.41-.13,4.73,4.32,7.87,8.21,9.52,2.45,1.03,5.05,1.62,7.63,2.25,2.9.7,5.82,1.34,8.75,1.92,2.86.55,5.73,1,8.59,1.5,2.46.44,5.03.92,7.31,1.99,3.31,1.54,6.57,5.04,5.65,8.87-.42,1.75-1.83,2.71-3.35,3.53-1.86,1.02-3.8,1.82-5.48,3.14-1.95,1.54-3.14,3.73-3.29,6.23-.16,2.73.95,5.29,1.8,7.82.87,2.62,1.2,5.3,1.28,8.05.08,2.54.34,5.43-.23,7.93-.43,1.91-1.43,2.94-3.23,3.19-1.35.18-3.17-.28-4.57-1.12-3.88-2.34-5.15-7.75-6.71-11.7-1.74-4.43-4.3-9.16-8.8-11.29-2.45-1.16-5.02-1.28-7.68-1.01-2.17.22-4.76.8-6.74-.4-2.86-1.74-3.03-6.51-3.07-9.8-.02-2.42.17-5.07-1.98-6.71-2.17-1.65-5.28-1.1-7.81-.94-2.69.16-5.51.36-8.07-.66-1.56-.62-3.07-1.76-4.37-2.88-2.92-2.53-5.61-5.56-9.35-6.86-.86-.3-1.75-.46-2.65-.48.14-7.16,1.42-14.32,3.72-21.14,4.86-14.43,13.89-27.17,24.49-37.97,2.63-2.68,5.37-5.24,8.18-7.72,1.02-.89.92-2.63,0-3.54-1-1-2.51-.89-3.53,0-12.02,10.57-22.74,23.07-29.72,37.55-5.36,11.11-8.3,23.15-8.11,35.35v.32h0c.07,3.27.36,6.55.88,9.83,1.18,7.39,3.66,14.63,7.45,21.1,4.01,6.85,9.51,12.58,15.93,17.22,6.67,4.81,14.22,8.31,21.93,11.08,8.19,2.95,16.66,5.07,25.3,6.19,16.43,2.14,33.65,0,47.98-8.73,11.95-7.27,21.31-18.38,27.44-30.88,6.3-12.84,9.51-27.22,9.11-41.54Zm-40.06-58.68c-4.31,3.42-5.95,9.04-9.93,12.74-2.88,2.68-8.14,4.52-11.25,1.09-1.64-1.8-1.67-4.5-1.66-6.79.02-2.75.13-5.51.09-8.26-.08-4.89-.62-9.91-2.58-14.4,2.67.35,5.31.88,7.91,1.57,8.48,2.25,16.27,6.16,23.09,11.41-2.05.4-4.05,1.35-5.67,2.64Zm30.21,89.2c-1.61,4.55-3.63,8.97-6.03,13.17-1.08-.31-2.13.23-2.83,1.15-.47.6-1.96.54-2.87.15-1.67-.71-2.39-2.54-2.68-4.27-.38-2.22-.06-4.54.17-6.76.27-2.71.42-5.44-.28-8.1-1.18-4.46-4.37-7.85-7.1-11.4-2.1-2.73-4.21-6.41-3.51-9.9.37-1.85,1.57-2.55,2.92-3.8,2.15-2.01,1.95-4.48.69-6.92-1.86-3.6-4.75-6.55-7.32-9.64-2.15-2.59-4.33-5.58-4.32-8.94.01-3.43,2.36-6.13,5.2-7.85,1.81-1.09,3.77-1.83,5.83-2.28,2.57-.57,5.24-.55,7.84-.92,3.08-.44,6.21-1.71,8.36-3.85,5.15,9.18,8.44,19.44,9.95,29.8,1.98,13.55.54,27.46-4.02,40.36Z"/>
	<path class="cls-1" d="m142.71,96.02c-.01.12-.04.08-.07.01.02-.03.04-.05.05-.08.04-.1.04.01.02.07Z"/>
</svg>