<?xml version="1.0" encoding="UTF-8"?>
<svg id="Layer_1" viewBox="0 0 200 200" xmlns="http://www.w3.org/2000/svg">
	<path fill="#71CB9F" class="cls-1" d="m181.9,56.8c-1.44-4.57-6.72-3.35-10.35-3.09-4.4.32-8.81.64-13.21.95-8.72.63-17.45,1.26-26.17,1.89-1.53.11-3.06.22-4.59.33-.48-8.49-1.43-17.29-3.97-25.42-2.08-6.67-5.79-13.53-12.37-16.67-4.09-1.94-8.65-2.35-13.12-2.12-3.94.2-7.92.84-11.66,2.1-7.65,2.57-14.09,7.66-17.37,15.15-4.27,9.72-3.28,20.32-1.94,30.57.03.26.09.5.19.74-13.29.96-26.57,1.92-39.86,2.88-2.16.16-4.32.31-6.48.47-1.42.1-2.4,1.07-2.5,2.5-1.22,17.44-.76,34.95.64,52.36,1.41,17.61,3.77,35.13,6.28,52.62.31,2.12.62,4.25.92,6.38.28,1.91.33,4.1.98,5.93.75,2.06,2.58,3.04,4.71,3.02,2.19-.03,4.4-.25,6.59-.37,8.81-.49,17.61-.98,26.41-1.47,17.6-.97,35.2-1.95,52.8-2.93,17.69-.98,35.37-1.97,53.06-2.95,2.16-.12,4.31-.24,6.47-.36,3.2-.18,3.22-5.18,0-5-17.27.96-34.54,1.92-51.81,2.88-17.18.95-34.37,1.91-51.56,2.87-8.63.48-17.27.96-25.9,1.44-4.32.24-8.64.48-12.95.72-.98.05-1.95.13-2.93.16-.09,0-.17,0-.24.01-.04-.2-.09-.41-.1-.46-.36-2.09-.61-4.2-.92-6.29-2.45-16.88-4.8-33.78-6.35-50.77-1.55-17.07-2.29-34.24-1.48-51.37.06-1.36.14-2.73.23-4.09,16.25-1.17,32.5-2.35,48.75-3.52,17.11-1.23,34.23-2.47,51.35-3.71,17.03-1.23,34.06-2.46,51.09-3.69.85-.06,1.75-.03,2.6-.13h.01c.04.15.04.33.05.44.17,1.93,0,3.95,0,5.89-.02,4.17-.03,8.34-.04,12.5-.03,8.26-.06,16.51-.08,24.76-.06,16.46-.11,32.92-.16,49.38-.01,2.15-.01,4.3-.02,6.45-.01,3.22,4.99,3.23,5,0,.05-16.94.11-33.88.16-50.82.03-8.39.06-16.77.08-25.16.02-4.22.03-8.45.04-12.67.01-2.22.02-4.45.02-6.67.01-1.82.26-3.89-.3-5.66Zm-102.07,3.53c-2.56.18-5.11.37-7.67.55.01-.13.01-.26,0-.39-1.08-8.24-2.17-16.84.18-24.96,2.01-6.92,6.59-12.2,13.19-15.08,3.05-1.34,6.42-2.16,9.72-2.54,3.76-.43,7.75-.58,11.42.46,6.14,1.75,9.69,7.33,11.68,13.05,2.84,8.2,3.79,17.2,4.26,25.82-14.26,1.03-28.52,2.06-42.77,3.09Z"/>
	<path fill="#71CB9F" class="cls-1" d="m148.69,97.72c-2.81-4.16-7.03-7.41-12.09-8.17-5.89-.9-11.51,1.2-16.8,3.57-1.11-1.95-2.38-3.81-3.83-5.55-4.59-5.51-11.5-9.9-18.91-7.82-4.1,1.14-7.91,4.09-9.72,7.98-.59,1.29-1.04,2.62-1.28,4.02-.1.56-.18,1.12-.24,1.69t.01-.02h.01v.04s-.01,0-.02,0h0c-.98-.51-1.97-.98-2.99-1.4-4.7-1.94-10.02-2.57-14.94-1.07-5.97,1.81-12.12,6.6-13.86,12.77-1.94,6.87.4,14.55,3.16,20.86,2.43,5.56,6.34,10.17,10.52,14.49,1.25,1.29,2.51,2.57,3.78,3.84,2.27,2.29,5.8-1.25,3.53-3.53-3.99-4.03-8.17-8-11.14-12.78-1.42-2.29-2.54-4.73-3.41-7.28-1.01-2.93-1.91-5.99-2.08-9.1-.16-2.88.18-6.07,2.05-8.4,1.61-2.03,3.84-3.74,6.11-4.95,3.84-2.03,8.01-2.19,12.06-1.04,2.25.64,3.66,1.28,5.72,2.44.91.52,1.8,1.07,2.67,1.66.45.3.88.6,1.32.92.19.14.39.29.58.43.09.06.18.13.26.19,0,0,.04.04.08.07h.01s.01.02.02.02h.01c2.64,2.1,5.09,4.43,7.33,6.95.55.61,1.08,1.25,1.6,1.88.04.06.08.12.13.17-.91-.97.05.15.33.56,1.16,1.77,2.32,3.54,3.45,5.33,4.03,6.41,7.92,13.21,9.42,20.71.53,2.63.67,5.35.64,8.03-.01,1.32-.07,2.78-.25,4.01-.08.61-.21,1.21-.37,1.8-.07.27-.15.54-.25.81-.12.34.02.07-.21.47-.9,1.55-2.12,2.6-3.53,3.27-.12.06-.25.12-.38.16-.18.09-.37.16-.56.22-3.21,1.13-7.16.55-10.37-.59-1.66-.59-3.21-1.54-4.71-2.46-2.74-1.7-5.25,2.62-2.52,4.32,5.33,3.29,12.22,5.61,18.39,3.75,3.86-.1,7.87-1.45,11.38-2.9,7.54-3.13,14.46-7.62,19.69-13.92,4.77-5.73,9.22-12.2,11.92-19.19,1.62-4.19,2.28-9.05,2.22-13.52-.06-4.82-1.22-9.71-3.94-13.73Zm-57.87-4.25s-.02.13-.04.25c0-.08.03-.17.04-.25Zm26.34,49.77c-.24-7.62-2.58-14.62-6.1-21.34-2.06-3.94-4.43-7.71-6.86-11.43-.9-1.37-1.78-2.76-2.82-4.04-3.24-3.92-7.05-7.56-11.32-10.45.3-.39.51-.88.61-1.38.02-.11.17-1.12.17-1.19h-.01c.05-.32.1-.65.17-.98.11-.5.24-.99.4-1.47.03-.08.18-.49.22-.6,0-.02.01-.03.01-.03.07-.14.27-.55.34-.69.7-1.33,1.37-2.19,2.66-3.17,2.54-1.95,5.8-2.7,8.64-1.98,2.82.72,5.21,2.47,7.3,4.57,1.93,1.93,3.04,3.39,4.46,5.72,1.77,2.91,3.07,6.14,4.14,9.37,2.92,8.86,3.8,18.46,2.32,27.69-.74,4.61-2.02,9.7-4.31,14.1.02-.91.01-1.81-.02-2.7Zm28.6-20.07c-.94,2.59-2.57,5.5-4.17,8.11-1.82,2.98-3.82,5.87-6.01,8.59-1.79,2.21-3.69,4.4-5.9,6.19,0,0-.01.01-.04.03,0,.01-.01.01-.02.01-.02.02-.04.03-.06.05-.11.08-.26.2-.28.21-.26.19-.52.39-.79.58-.45.32-.9.64-1.36.95-1.04.71-2.11,1.39-3.19,2.04-1.7,1.01-3.46,1.95-5.26,2.78,3.25-4.25,5.37-9.47,6.66-14.74,2.45-9.96,2.41-20.49-.01-30.44-.82-3.39-1.89-6.75-3.3-9.96,4.06-1.84,8.5-3.63,13.02-3.21,3.59.32,6.78,2.44,8.91,5.29,4.88,6.53,4.48,16.16,1.8,23.52Z"/>
	<path fill="#71CB9F" class="cls-1" d="m85.84,93.42v.04s-.01,0-.02,0h0s.01-.02.01-.03h.01Z"/>
</svg>