<svg width="37" height="37" viewBox="0 0 37 37" fill="none" xmlns="http://www.w3.org/2000/svg">
<path d="M18.0554 13.5422C17.7594 10.8412 18.9434 7.99224 21.3114 6.58624C23.5684 5.25424 26.6394 5.55024 28.5264 7.40024C28.8224 7.69624 29.1184 7.99224 29.5254 8.10324C29.9694 8.21424 30.4134 8.10324 30.8204 7.88124C31.7454 7.43724 32.6704 6.91924 33.5954 6.40124C33.2624 6.06824 32.9664 5.77224 32.6334 5.43924C32.1154 6.62324 31.5974 7.80724 31.0794 8.99124C30.8574 9.47224 31.1164 10.0272 31.6714 10.0272C32.5594 10.0642 33.4104 9.84224 34.1874 9.39824C33.8544 9.21324 33.4844 8.99124 33.1514 8.80624C33.1514 9.54624 32.9664 10.2122 32.5964 10.8412C32.1894 11.4332 31.5974 11.8772 31.2274 12.5062C30.8204 13.1722 30.7094 13.9122 30.5614 14.6522C30.4504 15.2812 30.3394 15.9472 30.1914 16.5762C29.6364 19.1662 28.8224 21.7562 27.4534 24.0502C26.0474 26.4182 24.0124 28.1942 21.4964 29.2672C20.0534 29.8962 18.5364 30.3032 17.0194 30.7102C15.4654 31.1172 13.8744 31.3762 12.2464 31.1172C8.95345 30.5622 6.21545 28.4532 3.69945 26.4182C3.58845 26.7882 3.47745 27.1952 3.40345 27.5652C5.77145 27.2322 8.06545 26.4922 10.2114 25.3822C10.6924 25.1232 10.6184 24.4572 10.2114 24.1982C8.76845 23.3102 6.65945 22.6812 6.10445 20.9052C5.80845 21.2012 5.54945 21.4602 5.25345 21.7562C6.43745 22.1262 8.02845 21.9782 8.95345 21.0532C9.28645 20.7202 9.21245 20.2022 8.80545 19.9802C6.54845 18.6482 4.99445 16.3172 4.58745 13.7272C4.25445 13.9862 3.92145 14.2452 3.55145 14.5042C4.40245 15.0962 5.36445 15.5032 6.40045 15.6882C6.99245 15.7992 7.47345 15.2442 7.17745 14.6522C5.88245 12.1732 4.10645 8.36224 6.84445 6.14224C6.51145 6.14224 6.17845 6.14224 5.84545 6.14224C6.88145 7.21524 7.65845 8.39924 8.54645 9.58324C9.47145 10.8042 10.5444 11.8032 11.8394 12.6172C12.5794 13.0982 13.2824 11.9142 12.5424 11.4332C11.3584 10.6932 10.3594 9.76824 9.54545 8.62124C8.69445 7.43724 7.84345 6.21624 6.80745 5.14324C6.51145 4.84724 6.10445 4.92124 5.80845 5.14324C4.47645 6.21624 3.92145 8.02924 3.99545 9.69424C4.10645 11.7292 5.03145 13.5422 5.95645 15.3182C6.21545 14.9852 6.47445 14.6522 6.73345 14.2822C5.80845 14.0972 4.99445 13.7642 4.21745 13.2462C3.66245 12.8762 3.10745 13.5052 3.18145 14.0232C3.66245 16.9462 5.47545 19.5732 8.02845 21.0902C7.99145 20.7202 7.91745 20.3502 7.88045 20.0172C7.32545 20.5722 6.25245 20.5722 5.54945 20.3502C5.03145 20.2022 4.55045 20.7202 4.69845 21.2012C5.36445 23.4952 7.62145 24.1982 9.43445 25.3452C9.43445 24.9382 9.43445 24.5312 9.43445 24.1612C7.39945 25.1972 5.21645 25.9002 2.95945 26.1962C2.47845 26.2702 2.25645 27.0472 2.66345 27.3432C5.10545 29.3042 7.65845 31.3022 10.7294 32.1532C14.0224 33.0782 17.4634 32.1162 20.6084 31.0062C22.1254 30.4882 23.5684 29.8222 24.8634 28.8602C26.0104 28.0092 26.9724 27.0102 27.8234 25.8632C29.4884 23.6062 30.5244 20.9052 31.1904 18.1672C31.3754 17.3902 31.5604 16.6132 31.7084 15.8362C31.8564 15.0222 31.8934 14.1342 32.2264 13.3942C32.5964 12.6172 33.3734 12.0992 33.8174 11.3592C34.2614 10.5822 34.5204 9.65724 34.4834 8.76924C34.4834 8.25124 33.8914 7.91824 33.4474 8.17724C32.8924 8.51024 32.3004 8.62124 31.6344 8.62124C31.8194 8.95424 32.0414 9.32424 32.2264 9.65724C32.7444 8.47324 33.2624 7.28924 33.7804 6.10524C34.0394 5.47624 33.4844 4.81024 32.8184 5.14324C32.0044 5.58724 31.1534 6.03124 30.3394 6.47524C30.2284 6.54924 30.0064 6.69724 29.8584 6.69724C29.7104 6.69724 29.6364 6.54924 29.5254 6.47524C29.2664 6.21624 28.9704 5.95724 28.6374 5.69824C27.4904 4.84724 26.0104 4.40324 24.6044 4.32924C21.6074 4.21824 18.8694 5.95724 17.5374 8.62124C16.7974 10.1382 16.4274 11.8402 16.6124 13.5052C16.6494 13.8752 16.9084 14.2082 17.3154 14.2082C17.7224 14.2452 18.0924 13.9122 18.0554 13.5422Z" fill="#F9F3F0"/>
</svg>
