<svg width="37" height="37" viewBox="0 0 37 37" fill="none" xmlns="http://www.w3.org/2000/svg">
<path d="M19.9058 8.32487C21.6078 8.36187 23.3468 8.36187 25.0488 8.39887C25.9368 8.39887 26.8248 8.43587 27.7128 8.43587C28.6378 8.43587 29.5998 8.43587 30.4878 8.65787C31.3018 8.87987 31.9678 9.28687 32.3378 10.0639C32.7078 10.7669 32.8188 11.6549 32.8558 12.4319C32.9668 14.6149 32.9298 16.7979 32.9668 18.9809C33.0038 21.1639 33.1148 23.3839 32.6708 25.5299C32.5228 26.2699 32.3378 27.0099 31.8568 27.5649C31.4498 28.0089 30.9318 28.3049 30.3768 28.4899C29.1188 28.8969 27.7868 28.8599 26.4918 28.7859C24.4568 28.6379 22.4588 28.4159 20.4608 28.3419C18.2038 28.2309 15.9468 28.2679 13.6898 28.2679C11.5438 28.2679 9.47184 28.1569 7.32584 27.8609C6.62284 27.7499 5.84584 27.7129 5.21684 27.3429C4.43984 26.8989 4.47684 25.8259 4.36584 25.0119C4.06984 22.7919 3.95884 20.5349 3.95884 18.3149C3.99584 16.0949 4.14384 13.8379 4.51384 11.6179C4.66184 10.8039 4.77284 9.87887 5.40184 9.28687C5.99384 8.73187 6.88184 8.50987 7.65884 8.39887C8.73184 8.25087 9.80484 8.21387 10.8778 8.21387C11.3958 8.21387 11.9138 8.25087 12.3948 8.28787C12.8758 8.32487 13.4308 8.32487 13.8748 8.50987C14.4668 8.76887 14.6518 9.50887 14.6888 10.1009C14.7628 10.9889 14.6518 11.8769 14.6148 12.7649C14.4668 15.0219 14.4298 17.3159 14.4668 19.5729C14.4668 20.1279 14.5038 20.6459 14.5038 21.2009C14.5408 21.6819 14.4668 22.2739 14.6148 22.7549C14.7628 23.1989 15.1328 23.4949 15.6138 23.5319C16.0948 23.5319 16.5388 23.2729 16.9458 23.0509C17.9448 22.5329 18.9068 22.0149 19.8688 21.4599C20.7568 20.9419 21.6818 20.4609 22.4958 19.8689C23.3098 19.2769 23.6798 18.2779 22.8658 17.5009C22.3108 16.9459 21.5338 16.5019 20.9048 16.0579C20.2758 15.6139 19.6838 15.1699 19.0548 14.7629C18.3148 14.2449 17.6488 15.4289 18.3518 15.9469C19.0178 16.4279 19.6468 16.8719 20.3128 17.3529C20.6088 17.5749 20.9048 17.7599 21.1638 17.9819C21.3488 18.1299 21.5708 18.2409 21.7188 18.3889C21.7558 18.4259 21.9038 18.4999 21.9038 18.5739C21.9038 18.4629 21.9038 18.5739 21.7928 18.6109C19.9428 19.8319 17.9818 20.9419 16.0208 21.9409C15.9468 21.9779 15.6138 22.0889 15.5768 22.1629C15.6508 22.2369 15.7618 22.3109 15.8358 22.3479C15.8358 22.3109 15.8358 22.2739 15.8358 22.2369C15.8728 22.1259 15.8358 21.9039 15.7988 21.7929C15.7618 21.2009 15.7618 20.5719 15.7248 19.9799C15.6878 18.8329 15.6878 17.6859 15.7248 16.5389C15.7618 15.3179 15.7988 14.0969 15.8728 12.9129C15.9098 11.9879 16.0578 11.0999 15.9838 10.1749C15.9098 9.39787 15.7248 8.58387 15.2068 7.95487C14.5408 7.17787 13.5418 7.06687 12.5798 6.99287C11.4328 6.88187 10.2858 6.88187 9.17584 6.95587C8.21384 7.02987 7.17784 7.10387 6.25284 7.36287C5.36484 7.62187 4.51384 8.06587 3.92184 8.84287C3.32984 9.61987 3.14484 10.5819 2.99684 11.5439C2.81184 13.7269 2.62684 16.0579 2.58984 18.3889C2.58984 20.6829 2.73784 22.9769 3.03384 25.2709C3.18184 26.2699 3.21884 27.3429 3.99584 28.0829C4.58784 28.6379 5.36484 28.8969 6.14184 29.0449C10.5448 29.8219 14.9478 29.4889 19.3878 29.6369C21.6078 29.7109 23.7908 29.8959 26.0108 30.0809C27.4168 30.1919 28.8598 30.2659 30.2658 29.9329C31.6348 29.5999 32.8928 28.8229 33.5218 27.5279C33.9658 26.6029 34.1138 25.5669 34.2618 24.5679C34.4098 23.4579 34.4468 22.3849 34.4468 21.2749C34.4468 18.9069 34.3728 16.5389 34.3358 14.1339C34.2988 12.3209 34.4098 10.2489 33.2258 8.73187C32.0048 7.14087 29.9328 7.02987 28.1198 7.02987C26.3438 6.99287 24.6048 6.99287 22.8288 6.95587C21.8668 6.95587 20.9048 6.91887 19.9428 6.91887C19.0178 6.95587 19.0178 8.32487 19.9058 8.32487Z" fill="#F9F3F0"/>
</svg>
